<svg width="220" height="45" viewBox="0 0 220 45" fill="none" xmlns="http://www.w3.org/2000/svg">
<path d="M180.258 0.5H220V39.6251H180.258V0.5Z" fill="black"/>
<path d="M180.258 39.6001H220V44.5001H180.258V39.6001Z" fill="#CDCDCD"/>
<path d="M77.0231 16.3029C77.0231 13.1949 79.6468 11.7913 82.0955 11.7913L82.108 11.7788C83.6072 11.7788 84.969 12.3302 85.6562 13.22L85.7312 13.3077L84.4443 15.7515H83.5823V15.5886C83.5573 14.5609 83.2074 13.3328 81.8332 13.3328C80.5588 13.3328 80.0466 13.9845 80.0466 15.576V18.1576H83.0575V19.7617H80.0341V29.6746L77.5104 30.414H77.0231V19.7617H75.7113V18.1576H77.0231V16.3029Z" fill="black"/>
<path fill-rule="evenodd" clip-rule="evenodd" d="M11.4788 20.1528C12.9517 19.4859 13.7805 18.2247 13.7805 16.6037C13.7805 13.6461 11.6565 12.0169 7.78352 12.0169H0V12.9819H0.749616L1.82407 13.0571V29.7247H8.59561C12.9059 29.7247 15.0048 28.1331 15.0048 24.8873C15.0048 22.4471 13.7217 20.7441 11.4788 20.1528ZM5.10989 19.5487H6.93396C7.73355 19.5487 10.3447 19.3482 10.3447 16.6538C10.3447 14.4857 9.44517 13.5709 7.30876 13.5709H5.10989V19.5487ZM7.22131 21.2781H5.0849V27.093C5.0849 27.3436 5.0849 28.083 6.29678 28.083H8.05838C10.4447 28.083 11.5691 27.0804 11.5691 24.9375C11.5691 22.4812 10.1448 21.2781 7.22131 21.2781Z" fill="black"/>
<path fill-rule="evenodd" clip-rule="evenodd" d="M28.348 27.8951L28.7603 27.7823L28.7478 27.7697L28.8602 27.7321L29.5224 28.5843L29.4224 28.6971C28.6978 29.4365 27.7358 29.8626 25.9742 29.8626L24.8998 28.9477C24.1377 29.637 23.1507 29.9503 21.8263 29.9503C19.7149 29.9503 16.604 28.1081 16.604 23.96C16.604 19.8119 19.9523 17.9697 23.2631 17.9697C24.8998 17.9697 26.4615 18.3456 27.436 18.9597L27.5234 19.0098V27.7321L28.348 27.8951ZM19.7399 23.9976C19.7399 26.2909 20.9893 28.1833 22.5135 28.1833V28.2084C23.513 28.2084 24.0127 27.8951 24.5125 27.3562L24.2376 19.7242L23.388 19.6364C20.9643 19.6364 19.7399 21.1027 19.7399 23.9976Z" fill="black"/>
<path d="M43.2779 27.7823L42.8281 27.8951L41.991 27.6319V22.1679C41.991 18.6965 39.9546 17.9697 38.2554 17.9697C37.1685 17.9697 35.8691 18.2579 34.4199 18.8218L34.2825 18.1702H30.0971V19.1602H30.272L31.4589 19.3482V29.7373H34.4824V20.5262C35.1195 20.263 36.0066 19.9623 36.8312 19.9623C38.2679 19.9623 38.9801 20.8646 38.9801 22.6692V27.3186C38.9801 29.6997 40.5168 29.9628 41.1789 29.9628C42.1534 29.9628 43.3153 29.449 43.9775 28.7222L44.0774 28.6219L43.3903 27.7572L43.2904 27.8073L43.2779 27.7823Z" fill="black"/>
<path d="M54.0606 25.3397L54.0617 25.3409C54.2861 25.5782 54.5152 25.8206 54.747 26.0654V26.0904L57.9704 29.449L58.2577 29.7372H54.6471L51.2488 26.2408C50.3742 25.2758 49.5871 24.4487 49.0749 23.9725V29.7247H46.0764V13.1197L44.6896 13.007H44.5147V12.0169H49.0749V21.5914L52.4482 19.3858L52.5856 19.1602L51.9609 19.1226H51.786V18.1702H57.5956V19.1226H57.4206C56.646 19.1226 56.0338 19.2229 55.2717 19.7743L51.2738 22.4561C51.8802 23.033 52.907 24.1193 54.0606 25.3397Z" fill="black"/>
<path fill-rule="evenodd" clip-rule="evenodd" d="M68.8898 17.9697C65.4915 17.9697 63.0178 20.5011 63.0178 23.9725C63.0178 27.4439 65.4791 29.9378 68.8898 29.9378C72.3006 29.9378 74.7243 27.4314 74.7243 23.9725C74.7243 20.5137 72.2756 17.9697 68.8898 17.9697ZM70.6514 27.4439L69.6144 28.1708C67.3906 28.1708 66.2911 26.5666 66.1412 23.9725C66.0663 22.4687 66.4661 21.1277 67.2157 20.3382L68.2277 19.6114C70.4515 19.6114 71.6134 21.3157 71.6884 23.8472C71.7758 25.351 71.3885 26.6544 70.6389 27.4439H70.6514Z" fill="black"/>
<path d="M104.647 26.6669C103.36 27.5316 101.536 28.0705 100.024 28.0705C96.2008 28.0705 93.7396 25.138 93.7396 20.6014C93.7396 16.4157 96.1133 13.5834 99.6241 13.5834C101.96 13.5834 103.372 14.4983 103.709 16.2528L103.734 16.3906H104.721V12.4054H103.909L99.6491 11.8039C95.1264 11.8039 90.2913 14.1975 90.2913 20.9272C90.2913 27.1306 94.914 29.9628 99.1993 29.9628C102.035 29.9628 104.147 28.7973 105.421 27.8198L105.546 27.7196L104.784 26.5792L104.647 26.6794V26.6669Z" fill="black"/>
<path d="M113.555 26.0892L111.58 21.7168C111.031 20.3508 110.556 19.1727 109.956 18.2328L109.906 18.1451H105.708V19.1352H107.02L111.68 29.2861C110.194 32.6447 108.894 33.6974 107.145 34.3741L106.933 34.4493L108.744 36.9683L108.882 36.8931C110.918 35.878 112.605 32.9079 113.854 30.4265L120.064 18.1326H117.54L113.555 26.0892Z" fill="black"/>
<path fill-rule="evenodd" clip-rule="evenodd" d="M128.597 17.9697L125.823 18.7717L125.698 18.1702H121.475V19.1602H121.65L122.837 19.3607V36.8429H123.324L125.873 36.0033V29.3362C126.335 29.5743 127.135 29.9503 128.322 29.9503C132.145 29.9503 133.882 26.8549 133.882 23.985C133.882 19.5487 131.033 17.9822 128.609 17.9822L128.597 17.9697ZM128.122 19.6364C129.446 19.6364 130.758 21.015 130.758 23.6843C130.758 26.3536 129.559 28.1958 127.972 28.1958L126.435 27.9702L125.898 20.6891C126.485 19.9623 127.197 19.6364 128.11 19.6364H128.122Z" fill="black"/>
<path d="M139.329 18.7968C140.166 18.2704 141.203 17.9697 142.127 17.9697L142.115 18.0073C143.152 18.0073 143.964 18.3707 144.464 19.085L144.526 19.1602L143.014 21.9799H142.177L142.09 20.5638L140.903 19.8745C140.428 19.8745 139.866 20.1377 139.366 20.5889V29.7373H136.293V19.3733L135.068 19.1853H134.893V18.1702H139.166L139.329 18.7968Z" fill="black"/>
<path d="M159.356 27.7823L158.931 27.8951L158.119 27.6319V18.1702H155.083V25.7019C155.083 27.9953 153.921 28.1833 152.509 28.1833C151.447 28.1833 150.211 27.7697 150.211 24.5239V18.1702H145.75V19.1226H145.925L147.2 19.2103V24.4237C147.2 28.1833 148.824 29.9503 152.322 29.9503C153.684 29.9503 154.708 29.6245 155.508 28.9227L156.545 29.8751C158.331 29.8751 159.343 29.4365 160.043 28.7096L160.143 28.5969L159.456 27.7196L159.343 27.7823H159.356Z" fill="black"/>
<path d="M167.212 22.543L167.214 22.5439H167.202L167.207 22.5459C168.743 23.1721 170.65 23.9499 170.65 26.2283C170.65 28.5091 168.739 29.9378 165.678 29.9378C163.217 29.9378 161.805 28.4841 161.43 28.0454L161.355 27.9452L162.254 26.504L162.404 26.6669C163.341 27.6569 164.403 28.1582 165.515 28.1582C166.802 28.1582 167.552 27.6569 167.552 26.7922C167.552 25.5641 166.465 25.138 165.19 24.6492C163.679 24.0602 161.967 23.3835 161.967 21.1277C161.967 19.1477 163.679 17.9571 166.54 17.9571C167.502 17.9571 168.489 18.095 169.263 18.3456H170.026V21.441H169.089L169.064 21.3032C168.814 20.1126 168.089 19.5111 165.678 19.5111L165.066 20.7768C165.066 21.6535 166.064 22.0671 167.212 22.543Z" fill="black"/>
<path fill-rule="evenodd" clip-rule="evenodd" d="M209.855 30.2011C209.468 30.3765 209.493 30.928 209.893 31.0783C210.218 31.2037 210.53 30.9781 210.53 30.6272C210.53 30.2638 210.18 30.0507 209.855 30.2011Z" fill="#F6F8F9"/>
<path fill-rule="evenodd" clip-rule="evenodd" d="M210.98 12.8945C210.592 13.1326 210.73 13.7341 211.192 13.7842C211.679 13.8344 211.917 13.1827 211.504 12.907C211.367 12.8193 211.13 12.8067 210.992 12.907" fill="#F6F8F9"/>
<path fill-rule="evenodd" clip-rule="evenodd" d="M212.129 13.1825C212.129 13.1825 212.079 13.2452 212.167 13.5459C212.341 14.1475 212.479 14.6989 212.591 15.2879C212.729 15.9646 212.716 15.927 212.854 15.9521C213.054 15.9897 213.179 15.902 213.179 15.7265C213.179 14.9621 212.366 12.9945 212.129 13.1825Z" fill="#F6F8F9"/>
<path fill-rule="evenodd" clip-rule="evenodd" d="M185.855 14.5863C185.855 14.5863 185.73 14.649 185.668 14.7116C185.268 15.0876 185.718 15.7267 186.205 15.4761C186.73 15.2129 186.442 14.4735 185.855 14.5863Z" fill="#F6F8F9"/>
<path fill-rule="evenodd" clip-rule="evenodd" d="M187.804 14.7869C187.542 15.1879 187.229 17.0552 187.392 17.2307C187.492 17.3434 187.779 17.356 187.829 17.2307C187.829 17.2056 187.867 16.9675 187.879 16.7043C187.892 16.4411 187.942 15.9524 187.979 15.614C188.041 15.0375 188.041 14.9999 188.004 14.8872C187.929 14.7117 187.867 14.6741 187.804 14.7618" fill="#F6F8F9"/>
<path fill-rule="evenodd" clip-rule="evenodd" d="M213.391 21.7671C213.341 21.8924 213.166 22.2182 213.016 22.4939C212.441 23.5341 212.342 23.7847 212.441 23.9602C212.666 24.3236 213.316 23.2709 213.628 22.0428C213.741 21.6167 213.728 21.5415 213.603 21.5415C213.503 21.5415 213.491 21.5415 213.404 21.7796" fill="#F6F8F9"/>
<path fill-rule="evenodd" clip-rule="evenodd" d="M214.515 21.8924C214.028 22.1055 214.191 22.8072 214.728 22.8072C214.903 22.8072 214.915 22.8072 215.04 22.6694C215.415 22.2934 214.99 21.6794 214.515 21.8924Z" fill="#F6F8F9"/>
<path fill-rule="evenodd" clip-rule="evenodd" d="M189.078 22.8576C188.641 23.1207 188.804 23.7348 189.303 23.7348C189.553 23.7348 189.641 23.6847 189.741 23.4842C189.94 23.0706 189.466 22.6195 189.078 22.8576Z" fill="#F6F8F9"/>
<path fill-rule="evenodd" clip-rule="evenodd" d="M187.754 23.3336C187.579 23.5467 188.029 25.3513 188.341 25.6646C188.541 25.8651 188.841 25.5769 188.703 25.3012C188.529 24.9503 188.266 24.2861 188.091 23.6971C187.966 23.2835 187.879 23.1833 187.754 23.3336Z" fill="#F6F8F9"/>
<path fill-rule="evenodd" clip-rule="evenodd" d="M192.439 30.4269C192.377 30.5021 192.364 30.5898 192.402 30.6775C192.464 30.8781 193.439 31.6049 194.176 32.0059C194.376 32.1062 194.701 32.2942 194.9 32.407C195.55 32.7704 195.8 32.8581 196.062 32.7704C196.45 32.6451 196.075 32.3568 194.513 31.5798C193.426 31.0284 193.126 30.853 192.727 30.5021C192.577 30.3768 192.489 30.3517 192.439 30.4144" fill="#F6F8F9"/>
<path fill-rule="evenodd" clip-rule="evenodd" d="M208.244 30.7528C208.106 30.828 207.681 31.0661 207.307 31.2666C206.145 31.9182 205.757 32.0686 204.645 32.3318C203.946 32.4947 203.796 32.5699 203.733 32.7829C203.671 32.996 203.721 33.0837 203.871 33.0587C204.808 32.9333 206.27 32.3945 207.219 31.8305C207.344 31.7553 207.631 31.5924 207.844 31.4796C208.306 31.229 208.556 31.0159 208.631 30.7778C208.706 30.5397 208.606 30.5397 208.231 30.7402" fill="#F6F8F9"/>
<path fill-rule="evenodd" clip-rule="evenodd" d="M191.627 31.0659C191.39 31.1662 191.277 31.5547 191.427 31.7677C191.764 32.2565 192.527 31.8179 192.252 31.279C192.152 31.0659 191.839 30.9657 191.615 31.0659" fill="#F6F8F9"/>
<path fill-rule="evenodd" clip-rule="evenodd" d="M202.621 31.6547C202.122 31.8552 201.909 33.4468 202.359 33.6724C202.634 33.8102 202.809 33.7225 202.946 33.3841C203.046 33.1209 203.096 31.9931 203.009 31.8552C202.921 31.6923 202.734 31.6046 202.621 31.6547Z" fill="#F6F8F9"/>
<path fill-rule="evenodd" clip-rule="evenodd" d="M197.099 32.0058C196.737 32.2564 196.262 33.1337 196.287 33.4971V33.6976L196.512 33.8229C196.824 34.0109 196.874 33.9984 197.099 33.7101C197.749 32.8956 197.911 32.2815 197.562 31.9807C197.412 31.8554 197.299 31.8554 197.099 32.0058Z" fill="#F6F8F9"/>
<path fill-rule="evenodd" clip-rule="evenodd" d="M199.86 31.9558C199.648 32.0435 199.486 32.407 199.261 33.3093C199.061 34.0863 199.086 34.1615 199.436 34.2617C199.611 34.3118 199.648 34.2993 199.76 34.174C200.31 33.5599 200.573 32.219 200.185 32.0185C200.06 31.9558 199.923 31.9308 199.848 31.9683" fill="#F6F8F9"/>
<path fill-rule="evenodd" clip-rule="evenodd" d="M198.586 31.9808C198.511 31.9934 198.099 32.4821 197.936 32.7327C197.549 33.3343 197.624 33.9483 198.099 34.0361C198.286 34.0737 198.599 33.6852 198.748 33.209C198.786 33.0962 198.861 32.8706 198.923 32.7202C199.061 32.3568 199.061 32.2691 198.898 32.1187C198.773 32.0059 198.686 31.9683 198.586 31.9808Z" fill="#F6F8F9"/>
<path fill-rule="evenodd" clip-rule="evenodd" d="M200.822 32.4693C200.323 33.522 200.36 34.0734 200.935 34.0734C201.097 34.0734 201.135 34.0358 201.335 33.6097C201.759 32.745 201.759 32.2939 201.335 32.1059C201.06 31.9806 201.035 31.9931 200.81 32.4693" fill="#F6F8F9"/>
<path fill-rule="evenodd" clip-rule="evenodd" d="M202.509 6.08948C202.047 6.20226 201.984 6.25239 202.172 6.42784C202.572 6.8038 203.933 7.29255 205.02 7.44294C205.682 7.53066 207.032 7.51813 207.032 7.41787C207.032 7.12964 206.095 6.69101 204.471 6.25239C203.783 6.06441 202.934 5.98922 202.509 6.08948Z" fill="#F6F8F9"/>
<path fill-rule="evenodd" clip-rule="evenodd" d="M194.301 6.29015C192.976 6.46559 191.365 7.30524 191.002 7.98197C190.89 8.20755 190.877 8.19502 191.365 8.19502C192.327 8.19502 193.564 7.76893 194.513 7.12979C195.338 6.57838 195.4 6.52825 195.4 6.428C195.4 6.29015 194.813 6.20242 194.301 6.27761" fill="#F6F8F9"/>
<path fill-rule="evenodd" clip-rule="evenodd" d="M211.567 7.40515C211.367 7.71845 211.305 9.41028 211.454 10.3377C211.642 11.4279 212.079 12.5934 212.242 12.4556C212.741 12.042 212.491 8.93406 211.854 7.64326C211.679 7.27983 211.654 7.2673 211.567 7.39262" fill="#F6F8F9"/>
<path fill-rule="evenodd" clip-rule="evenodd" d="M208.281 7.60601C208.169 7.68121 208.369 8.383 208.668 8.97201C209.293 10.2252 210.68 11.5661 211.355 11.5661C211.579 11.5661 211.117 10.4508 210.605 9.74899C210.443 9.53595 210.255 9.27278 210.18 9.15999C209.718 8.49579 208.481 7.46816 208.281 7.59348" fill="#F6F8F9"/>
<path fill-rule="evenodd" clip-rule="evenodd" d="M188.991 9.0472C188.041 9.77405 187.217 12.5812 187.717 13.3582C187.866 13.5963 188.778 11.9421 189.016 11.0022C189.178 10.3631 189.278 8.92188 189.153 8.92188C189.153 8.92188 189.066 8.972 188.978 9.03466" fill="#F6F8F9"/>
<path fill-rule="evenodd" clip-rule="evenodd" d="M186.38 10.2126C186.092 10.8266 186.055 11.7164 186.28 12.5686C186.542 13.5837 186.805 14.1727 187.129 14.4484L187.229 14.5361L187.254 14.3231C187.429 12.8944 187.067 10.7514 186.53 10.0747L186.467 9.99951L186.367 10.2126H186.38Z" fill="#F6F8F9"/>
<path fill-rule="evenodd" clip-rule="evenodd" d="M207.257 10.2127C206.944 10.2629 206.944 10.3255 207.257 10.6138C208.056 11.3782 209.43 12.0424 210.517 12.2053C211.205 12.3056 211.292 12.2053 210.83 11.7667C209.855 10.8519 208.119 10.0874 207.269 10.2127" fill="#F6F8F9"/>
<path fill-rule="evenodd" clip-rule="evenodd" d="M190.89 10.5133C190.378 10.6762 189.416 11.5158 188.953 12.2051C188.616 12.7189 188.179 13.8593 188.279 13.9596C188.354 14.0348 189.116 13.4583 189.666 12.9069C190.365 12.2051 190.753 11.6161 191.002 10.8516C191.152 10.413 191.152 10.4256 190.877 10.5007" fill="#F6F8F9"/>
<path fill-rule="evenodd" clip-rule="evenodd" d="M213.841 15.8645C213.416 16.3282 213.166 17.0551 213.054 18.1704C212.966 19.0978 213.104 20.0377 213.391 20.4011L213.441 20.4763L213.541 20.2758C213.866 19.5991 214.253 17.7819 214.253 16.9047C214.253 16.4911 214.203 16.2405 214.091 15.9899C213.966 15.7392 213.966 15.7392 213.841 15.8645Z" fill="#F6F8F9"/>
<path fill-rule="evenodd" clip-rule="evenodd" d="M210.805 16.5786C210.705 17.0047 210.905 18.0198 211.267 18.8344C211.817 20.0876 212.379 20.8646 212.854 21.0776L212.941 21.1152V20.7392C212.866 19.3858 212.004 17.2804 211.279 16.729C210.967 16.4909 210.842 16.4533 210.805 16.5786Z" fill="#F6F8F9"/>
<path fill-rule="evenodd" clip-rule="evenodd" d="M215.677 16.8042C215.003 17.1426 214.203 18.7216 213.928 20.2254C213.841 20.7142 213.878 21.3784 213.978 21.3784C214.141 21.3784 214.84 20.3884 215.215 19.6364C215.615 18.8219 215.915 17.4433 215.815 16.8042V16.729L215.677 16.7917V16.8042Z" fill="#F6F8F9"/>
<path fill-rule="evenodd" clip-rule="evenodd" d="M186.592 17.3182C186.292 18.6215 186.667 20.9274 187.367 22.0678C187.517 22.3059 187.517 22.2934 187.579 21.7796C187.817 19.8873 187.492 17.9824 186.78 17.1929L186.642 17.0425L186.58 17.3182H186.592Z" fill="#F6F8F9"/>
<path fill-rule="evenodd" clip-rule="evenodd" d="M188.753 18.0076C188.416 18.5089 188.154 19.3987 188.004 20.4765C187.904 21.1908 187.941 22.6445 188.041 22.6445C188.104 22.6445 188.379 22.2435 188.529 21.9176C189.016 20.865 189.291 19.4363 189.153 18.6593C189.103 18.3585 188.928 17.8447 188.878 17.8447C188.878 17.8447 188.803 17.9199 188.753 18.0076Z" fill="#F6F8F9"/>
<path fill-rule="evenodd" clip-rule="evenodd" d="M184.756 18.8975C184.893 20.464 185.818 22.2686 186.805 22.9202C187.063 23.0873 187.129 22.9411 187.005 22.4816C186.43 20.3637 185.843 19.3486 184.843 18.7471L184.731 18.6719L184.756 18.8975Z" fill="#F6F8F9"/>
<path fill-rule="evenodd" clip-rule="evenodd" d="M210.143 24.4237C209.53 25.1506 209.318 26.7422 209.605 28.4089C209.755 29.2736 209.843 29.211 210.255 27.9828C210.642 26.8299 210.68 25.6018 210.368 24.6618C210.255 24.3235 210.243 24.3109 210.143 24.4363" fill="#F6F8F9"/>
<path fill-rule="evenodd" clip-rule="evenodd" d="M212.679 24.6996C211.742 25.2134 210.917 26.5919 210.592 28.1208C210.442 28.8226 210.48 28.8352 211.08 28.2336C212.266 27.0431 212.904 25.8651 212.904 24.9001C212.904 24.5868 212.904 24.5868 212.679 24.6996Z" fill="#F6F8F9"/>
<path fill-rule="evenodd" clip-rule="evenodd" d="M199.86 12.5809C199.748 12.6185 199.748 12.6185 199.748 14.5985C199.748 16.8668 199.698 16.6287 200.16 16.6287C200.622 16.6287 200.585 16.8794 200.585 14.586V12.6435L200.523 12.6059C200.523 12.6059 199.96 12.5433 199.86 12.5809Z" fill="#F6F8F9"/>
<path fill-rule="evenodd" clip-rule="evenodd" d="M203.808 12.9317L203.733 13.0069V13.9217C203.733 14.5358 203.733 14.8366 203.708 14.8366C203.696 14.8366 203.234 14.4105 202.684 13.8967C201.659 12.9066 201.647 12.8941 201.547 12.9317L201.484 12.9568V16.6913L201.547 16.7289C201.622 16.779 202.209 16.7916 202.259 16.7289C202.284 16.7039 202.297 16.4783 202.297 15.8767C202.297 15.0371 202.297 14.9744 202.372 14.9744C202.397 14.9744 202.871 15.3504 203.433 15.8141C203.996 16.2778 204.47 16.6537 204.495 16.6537C204.57 16.6537 204.57 12.9818 204.495 12.9192C204.396 12.844 203.883 12.844 203.808 12.9317Z" fill="#F6F8F9"/>
<path fill-rule="evenodd" clip-rule="evenodd" d="M193.988 13.0947C193.988 13.0947 193.601 13.5334 193.214 13.997C192.826 14.4607 192.489 14.8367 192.477 14.8367C192.439 14.8367 192.439 14.7114 192.427 14.0096C192.427 13.3078 192.402 13.1699 192.377 13.1574C192.302 13.1198 191.727 13.1198 191.665 13.1574C191.59 13.2075 191.577 17.3055 191.652 17.3807C191.702 17.4434 192.352 17.4434 192.414 17.3807C192.452 17.3431 192.452 17.2178 192.452 16.3781C192.452 15.6889 192.452 15.4257 192.477 15.4257C192.489 15.4257 192.602 15.4884 192.702 15.5761C193.076 15.8643 194.476 16.8794 194.576 16.9546C194.713 17.0549 194.763 17.0298 194.975 16.7792C195.225 16.4784 195.263 16.541 194.288 15.7766C193.826 15.4132 193.451 15.0999 193.439 15.0748C193.414 15.0121 193.439 14.9745 194.176 14.1474C194.75 13.4832 194.738 13.5334 194.426 13.2827C194.126 13.0446 194.076 13.0321 193.976 13.1073" fill="#F6F8F9"/>
<path fill-rule="evenodd" clip-rule="evenodd" d="M196.787 12.8691C195.4 13.2075 194.938 14.8993 195.937 15.9018C197.037 17.0047 198.911 16.3029 199.011 14.7364C199.086 13.5208 197.961 12.5683 196.787 12.8566V12.8691ZM197.924 15.1374C197.412 15.8267 196.312 15.4632 196.312 14.5985C196.312 13.9594 196.937 13.5458 197.537 13.7714C198.074 13.9719 198.274 14.6737 197.924 15.1374Z" fill="#F6F8F9"/>
<path fill-rule="evenodd" clip-rule="evenodd" d="M206.832 12.869C205.47 13.245 205.008 14.9243 205.982 15.9018C207.119 17.0422 209.056 16.2527 209.068 14.636C209.068 13.4455 207.944 12.5557 206.832 12.869ZM206.594 15.1749C206.007 14.4856 206.732 13.4455 207.594 13.7463C207.794 13.8089 208.044 14.0721 208.119 14.2726C208.443 15.2125 207.244 15.9143 206.594 15.1624V15.1749Z" fill="#F6F8F9"/>
<path fill-rule="evenodd" clip-rule="evenodd" d="M195.5 17.7815C195.175 18.0948 195.138 18.0196 195.975 18.8718L196.699 19.5986V20.8644C196.699 22.4058 196.649 22.2554 197.137 22.2554C197.649 22.2554 197.586 22.4058 197.586 21.0273C197.586 20.1751 197.587 19.8368 197.624 19.7741C197.636 19.7365 197.961 19.3605 198.336 18.9595C199.161 18.0572 199.123 18.1324 198.798 17.8066C198.486 17.4933 198.548 17.4807 197.824 18.17C197.474 18.5084 197.187 18.7715 197.149 18.7715C197.112 18.7715 196.837 18.5084 196.487 18.1575C195.762 17.4306 195.825 17.4557 195.5 17.7815Z" fill="#F6F8F9"/>
<path fill-rule="evenodd" clip-rule="evenodd" d="M207.919 18.5589C207.919 18.5589 207.881 18.8095 207.881 20.5389C207.881 22.8072 207.831 22.5566 208.294 22.5566C208.556 22.5566 208.631 22.5566 208.668 22.519C208.731 22.4563 208.731 18.6341 208.668 18.5714C208.606 18.5087 207.981 18.5087 207.919 18.5714" fill="#F6F8F9"/>
<path fill-rule="evenodd" clip-rule="evenodd" d="M199.548 18.922C199.486 18.9972 199.473 22.0425 199.548 22.1302C199.61 22.218 200.285 22.2305 200.335 22.1302C200.348 22.0926 200.36 21.6666 200.36 20.9272V19.7867L200.497 19.6489H201.347C202.284 19.6489 202.322 19.6489 202.322 19.8118C202.322 19.8494 202.247 20.3131 202.172 20.8269C201.984 21.9924 201.972 22.055 202.022 22.1052C202.072 22.1678 202.721 22.1678 202.771 22.1052C202.796 22.0676 203.234 19.1852 203.246 18.9972C203.246 18.8594 203.284 18.8594 201.372 18.8594C199.748 18.8594 199.585 18.8594 199.548 18.9095" fill="#F6F8F9"/>
<path fill-rule="evenodd" clip-rule="evenodd" d="M194.313 18.9972C194.313 18.9972 193.938 19.4484 193.564 19.887C193.189 20.3256 192.876 20.7016 192.851 20.7016C192.789 20.7016 192.789 20.6264 192.789 19.8369C192.789 18.9095 192.826 18.9722 192.389 18.9722C192.177 18.9722 192.089 18.9722 192.052 19.0098L191.989 19.0474V20.9898C191.989 23.2707 191.939 23.02 192.402 23.02C192.864 23.02 192.826 23.0952 192.826 22.1052C192.826 21.2154 192.826 21.228 193.001 21.3533C193.226 21.5287 194.95 22.7819 195.013 22.8195C195.113 22.8822 195.188 22.8195 195.363 22.619C195.613 22.3182 195.65 22.3809 194.676 21.6164C193.988 21.0776 193.826 20.9397 193.826 20.8896C193.826 20.8395 194.001 20.6264 194.426 20.1377C195.163 19.3106 195.138 19.3732 194.788 19.0975C194.501 18.8719 194.438 18.8594 194.326 18.9847" fill="#F6F8F9"/>
<path fill-rule="evenodd" clip-rule="evenodd" d="M205.795 18.4586C205.457 18.396 204.495 18.396 204.433 18.4586C204.383 18.5213 204.358 22.3937 204.42 22.5065C204.458 22.5691 205.17 22.5942 205.22 22.519C205.245 22.4939 205.258 22.2934 205.258 21.9927V21.5039L205.482 21.4788C206.469 21.3786 206.994 20.8648 206.994 19.9625C206.994 19.1479 206.557 18.5965 205.795 18.4461V18.4586ZM205.957 20.3635C205.857 20.5013 205.582 20.6141 205.333 20.6141H205.12V19.9374C205.12 19.0978 205.12 19.0852 205.52 19.198C206.007 19.3484 206.245 19.9625 205.97 20.3635H205.957Z" fill="#F6F8F9"/>
<path fill-rule="evenodd" clip-rule="evenodd" d="M195.163 24.3108C195.088 24.3986 195.113 26.153 195.2 26.4663C195.575 27.8073 197.074 28.0704 197.736 26.9175C197.861 26.6919 197.899 26.6919 197.986 26.8799C198.361 27.6318 199.248 27.8825 200.085 27.4564C200.797 27.093 201.097 26.4162 201.135 25.1129C201.16 24.3234 201.185 24.3735 200.76 24.3735C200.36 24.3735 200.385 24.3359 200.373 25.0252C200.36 25.5766 200.36 25.5891 200.273 25.7896C199.698 27.1305 198.386 26.8423 198.374 25.3761C198.374 24.95 198.374 24.95 198.049 24.95C197.699 24.95 197.699 24.9374 197.686 25.4387C197.637 26.6669 196.437 27.1431 196.05 26.0779C195.987 25.9275 195.987 25.8397 195.975 25.1254C195.95 24.1855 196 24.2607 195.538 24.2607C195.263 24.2607 195.225 24.2607 195.175 24.3108" fill="#F6F8F9"/>
<path fill-rule="evenodd" clip-rule="evenodd" d="M204.645 24.4234C204.645 24.4234 204.608 24.6239 204.608 25.4134C204.608 25.9272 204.608 26.3408 204.583 26.3408C204.583 26.3408 204.108 25.9022 203.546 25.3633C202.871 24.7116 202.522 24.3858 202.472 24.3858C202.322 24.3858 202.334 24.2855 202.334 26.2907C202.334 28.4838 202.272 28.2331 202.796 28.2206H203.146V27.3559C203.146 26.4661 203.171 26.3784 203.271 26.4661C203.296 26.4787 203.746 26.8546 204.296 27.3058C204.895 27.7945 205.308 28.1204 205.345 28.1204H205.408V26.2907C205.408 24.6615 205.408 24.4485 205.37 24.4109C205.295 24.3357 204.708 24.3482 204.658 24.4234" fill="#F6F8F9"/>
<path fill-rule="evenodd" clip-rule="evenodd" d="M191.602 25.276C191.177 25.9152 191.277 28.0456 191.802 29.4492C191.989 29.9505 192.002 29.963 192.127 29.5871C192.302 29.0482 192.402 28.2336 192.364 27.4942C192.314 26.3538 191.827 24.9377 191.602 25.276Z" fill="#F6F8F9"/>
<path fill-rule="evenodd" clip-rule="evenodd" d="M189.203 25.8527C189.303 27.1685 190.478 29.2614 191.315 29.6123C191.44 29.6624 191.44 29.6624 191.415 29.4744C191.215 27.8578 190.365 26.2286 189.453 25.7023C189.178 25.5519 189.178 25.5519 189.203 25.8527Z" fill="#F6F8F9"/>
<path fill-rule="evenodd" clip-rule="evenodd" d="M213.953 26.5417C212.916 26.8425 211.305 28.1709 210.805 29.1233L210.692 29.3238L210.767 29.3614C210.98 29.4867 211.867 29.1484 212.504 28.7223C213.453 28.0706 213.841 27.7448 214.178 27.2686C214.316 27.0806 214.553 26.5793 214.565 26.4916C214.565 26.4289 214.241 26.454 213.953 26.5292" fill="#F6F8F9"/>
<path fill-rule="evenodd" clip-rule="evenodd" d="M187.367 27.5192C187.879 28.6721 189.128 29.6872 190.715 30.2136C191.115 30.3514 191.24 30.3765 191.24 30.3264C191.24 30.2888 190.615 29.4742 190.265 29.0606C189.491 28.1333 188.316 27.4064 187.504 27.3438H187.279L187.354 27.5067L187.367 27.5192Z" fill="#F6F8F9"/>
</svg>
