<svg width="195" height="55" viewBox="0 0 195 55" fill="none" xmlns="http://www.w3.org/2000/svg">
<g clip-path="url(#clip0_0_1090)">
<path d="M29.7585 13.9463V43.1618H24.8836V13.9463H29.7585Z" fill="#010101"/>
<path fill-rule="evenodd" clip-rule="evenodd" d="M0.212524 43.1618H10.5994C16.058 43.1618 21.5166 41.2322 21.5166 35.0209C21.5166 31.3496 18.9153 28.5312 15.2903 28.1234V28.0385C18.2562 27.1593 20.3017 25.022 20.3017 21.7957C20.3017 16.5936 15.8149 14.6197 11.4554 14.6197H0.212524V43.1618ZM5.34549 18.9715H9.58342C13.4567 18.9715 15.1636 20.1826 15.1636 22.6428C15.1636 24.7808 13.4567 26.2324 10.0306 26.2324H5.34549V18.9715ZM5.34549 30.5842H10.2737C14.4284 30.5842 16.3908 31.6339 16.3908 34.6196C16.3908 38.3636 12.7157 38.81 10.069 38.81H5.34549V30.5842Z" fill="#010101"/>
<path fill-rule="evenodd" clip-rule="evenodd" d="M43.6657 43.6429C37.7527 43.6429 33.0292 39.5754 33.0292 33.4876C33.0292 27.3998 37.7527 23.3259 43.6657 23.3265C49.5721 23.3265 54.3021 27.3992 54.3021 33.4876C54.3021 39.576 49.5715 43.6429 43.6657 43.6429ZM43.6657 27.6848C40.0797 27.6848 37.9191 30.464 37.9191 33.4876C37.9191 36.5112 40.079 39.2911 43.6657 39.2911C47.2516 39.2911 49.4057 36.5106 49.4057 33.4876C49.4057 30.4646 47.2516 27.6848 43.6657 27.6848Z" fill="#010101"/>
<path fill-rule="evenodd" clip-rule="evenodd" d="M56.5068 33.4876C56.5068 39.5754 61.2309 43.6429 67.1432 43.6429C73.049 43.6429 77.7796 39.576 77.7796 33.4876C77.7796 27.3992 73.0497 23.3265 67.1432 23.3265C61.2303 23.3259 56.5068 27.3998 56.5068 33.4876ZM61.3966 33.4876C61.3966 30.464 63.5572 27.6848 67.1432 27.6848C70.7292 27.6848 72.8833 30.4646 72.8833 33.4876C72.8833 36.5106 70.7292 39.2911 67.1432 39.2911C63.5572 39.2911 61.3966 36.5112 61.3966 33.4876Z" fill="#010101"/>
<path d="M85.4046 23.8102H80.7578V43.1617H85.6477V32.5987C85.6477 30.015 86.9132 27.6841 90.1287 27.6841C92.4934 27.6841 93.4716 29.249 93.4716 31.6339V43.1617H98.355V32.6778C98.355 30.1822 99.4996 27.6841 102.555 27.6841C105.45 27.6841 106.179 29.7809 106.179 32.1973V43.1624H111.069V31.6346C111.069 26.9978 109.233 23.3233 104.018 23.3233C101.09 23.3233 99.0128 24.4585 97.5873 26.9129C96.5714 24.49 94.4875 23.3233 91.4703 23.3233C88.2106 23.3233 86.338 25.022 85.4813 26.837H85.4046V23.8102Z" fill="#010101"/>
<path fill-rule="evenodd" clip-rule="evenodd" d="M115.032 43.1618H119.679V40.261H119.755C121.187 42.5919 123.75 43.6422 126.485 43.6422C132.507 43.6422 136.138 39.2081 136.138 33.4869C136.138 27.7626 132.264 23.3259 126.684 23.3259C123.021 23.3259 121.059 25.0149 120.043 26.2736H119.921V13.9463H115.031L115.032 43.1618ZM131.248 33.4876C131.248 36.5144 129.094 39.2911 125.502 39.2911C121.915 39.2911 119.755 36.5144 119.755 33.4876C119.755 30.464 121.915 27.6777 125.502 27.6777C129.094 27.6777 131.248 30.464 131.248 33.4876Z" fill="#010101"/>
<path fill-rule="evenodd" clip-rule="evenodd" d="M158.152 33.8517V35.1798H143.239C143.559 38.042 145.765 39.778 148.493 39.778C150.935 39.778 152.527 38.6466 153.748 37.1628L157.251 39.778C154.975 42.5553 152.073 43.6429 148.986 43.6429C143.067 43.6429 138.35 39.5754 138.35 33.4876C138.35 27.3998 143.067 23.3265 148.986 23.3265C154.445 23.3265 158.152 27.1156 158.152 33.8517ZM148.289 26.9541C145.4 26.9541 143.604 28.766 143.239 31.5523H153.262C153.217 28.7287 151.345 26.9541 148.289 26.9541Z" fill="#010101"/>
<path d="M161.335 23.8102H166.225V26.875H166.308C167.369 24.6579 169.523 23.3233 172.092 23.3233C172.706 23.3233 173.275 23.4468 173.843 23.6108V28.2855C173.032 28.0861 172.252 27.9247 171.478 27.9247C166.876 27.9247 166.224 31.7574 166.224 32.8077V43.1624H161.334L161.335 23.8102Z" fill="#010101"/>
<path fill-rule="evenodd" clip-rule="evenodd" d="M190.566 26.7135V23.8102H195.213V41.4284C195.213 48.3992 191.794 52.8391 184.174 52.8391C180.543 52.8391 177.238 52.0795 174.477 49.6509L177.405 45.692C179.361 47.4756 181.4 48.488 184.13 48.488C188.86 48.488 190.317 45.8245 190.317 41.9982V40.5845H190.247C188.815 42.4787 186.29 43.4023 183.842 43.4023C177.98 43.4023 174.107 38.965 174.107 33.4876C174.107 27.76 177.732 23.3233 183.759 23.3233C186.488 23.3233 189.058 24.373 190.489 26.7135H190.566ZM190.566 33.3699C190.566 30.015 188.323 27.6841 184.782 27.6841C181.355 27.6841 178.996 30.015 178.996 33.4458C178.996 36.5106 181.444 39.0499 184.743 39.0499C188.367 39.0499 190.566 36.5897 190.566 33.3699Z" fill="#010101"/>
</g>
<defs>
<clipPath id="clip0_0_1090">
<rect width="195" height="54" fill="white" transform="translate(0 0.5)"/>
</clipPath>
</defs>
</svg>
