<svg width="148" height="41" viewBox="0 0 148 41" fill="none" xmlns="http://www.w3.org/2000/svg">
<g clip-path="url(#clip0_0_1086)">
<path fill-rule="evenodd" clip-rule="evenodd" d="M0 1.18359H38.8981V40.5001H0V1.18359Z" fill="black"/>
<path fill-rule="evenodd" clip-rule="evenodd" d="M1.12506 2.31982H37.7731V39.3628H1.12506V2.31982Z" fill="white"/>
<path fill-rule="evenodd" clip-rule="evenodd" d="M3.06948 31.8788L7.85016 36.8045L19.0511 25.3179L30.6268 37.0411L35.4774 32.186L24.0179 20.605L26.2209 18.4498V13.8552L27.6037 12.6712V16.2708L29.3847 17.7391L34.7035 12.3631L36.4139 13.6892C37.4219 9.92363 31.5869 1.3736 26.7599 6.11037L21.1354 11.7468L22.284 13.1445L19.425 15.9627L16.6604 13.2151L18.113 11.8881L11.9504 5.8729C7.31121 2.01198 2.5541 7.88677 2.38989 13.6177L4.07665 12.1971L9.25481 17.8344L11.1058 16.2717V12.8134L12.2536 13.6892V18.2132L14.5029 20.4867L3.06948 31.8788Z" fill="black"/>
<path fill-rule="evenodd" clip-rule="evenodd" d="M48.8334 5.89644V9.30709H50.2861C52.2777 8.92831 51.7387 6.03858 50.2861 5.89644H48.8334ZM44.7096 2.50962V17.9524H48.8334V12.9314L52.3484 17.9524H57.2226L52.8882 11.7712C57.903 9.30794 56.0284 2.58112 50.756 2.51047L44.7096 2.50962ZM63.7835 10.2306C65.1426 10.2306 66.2433 11.2724 66.2433 12.5518C66.2433 13.8302 65.1418 14.8729 63.7835 14.8729C62.4479 14.8729 61.3464 13.8302 61.3464 12.5518C61.3464 11.2724 62.4479 10.2306 63.7835 10.2306ZM62.9161 6.81996C64.0412 6.81996 65.0955 7.19873 65.962 7.81413V7.22256H69.9924L70.016 17.9516H65.9384L65.962 17.2885C65.0955 17.9039 64.0412 18.2597 62.9161 18.2597C59.9165 18.2597 57.4567 15.7019 57.4567 12.5518C57.4567 9.40157 59.9173 6.81996 62.9161 6.81996ZM72.149 7.22256H76.4371V17.9516H72.149V7.22256ZM74.304 1.08816C75.547 1.08816 76.5541 2.13 76.5541 3.38548C76.5541 4.64096 75.547 5.68279 74.304 5.68279C73.0392 5.68279 72.0311 4.64011 72.0311 3.38548C72.032 2.13085 73.0392 1.08816 74.304 1.08816ZM106.853 7.22256H111.141V17.9516H106.853V7.22256ZM108.985 1.08816C110.251 1.08816 111.258 2.13 111.258 3.38548C111.258 4.64096 110.251 5.68279 108.985 5.68279C107.743 5.68279 106.736 4.64011 106.736 3.38548C106.736 2.13085 107.743 1.08816 108.985 1.08816ZM77.2337 7.22256V10.6332H78.71V17.9516H82.8582V10.6332H86.7479V17.9516H91.036V10.5864H93.7072V7.27023H90.9181V4.87844C90.8482 4.00258 92.887 3.64679 93.5901 4.35752V0.851538C89.6532 -0.403941 86.4667 1.84656 86.4894 5.32785V7.22256H82.8338V4.87844C82.7866 4.00258 84.5685 3.64679 85.5985 4.35752V0.851538C82.1769 -0.166464 78.5222 1.5146 78.5457 5.30402V7.19873L77.2337 7.22256ZM99.8226 18.2597C103.502 18.2359 104.86 16.697 105.658 14.4465H101.932C100.245 16.6255 97.7839 15.0389 97.9018 13.2625H105.776C105.776 8.90448 103.478 6.84379 99.8235 6.84379C96.1687 6.84379 93.8722 9.44923 93.8722 12.6233C93.8722 15.7973 96.5426 18.2836 99.8226 18.2597ZM98.4399 10.7285C98.487 9.4254 101.299 9.4254 101.486 10.7285H98.4399ZM129.02 18.2597C132.722 18.2359 134.082 16.697 134.877 14.4465H131.128C129.441 16.6255 126.981 15.0389 127.099 13.2625H134.972C134.972 8.90448 132.7 6.84379 129.02 6.84379C125.365 6.84379 123.069 9.44923 123.069 12.6233C123.069 15.7973 125.739 18.2836 129.02 18.2597ZM127.637 10.7285C127.684 9.4254 130.496 9.4254 130.683 10.7285H127.637ZM121.943 7.43621L120.678 10.0416C119.084 9.54371 117.537 9.63904 117.585 10.0885C117.632 10.3728 117.374 10.8698 119.857 11.2256C123.559 11.8172 123.255 18.7806 117.046 18.2597C115.335 18.1414 113.952 17.6911 112.805 17.0042L114.187 14.209C116.133 15.1802 118.006 15.7488 118.147 14.7776C118.311 13.5698 116.108 13.9962 114.773 12.9773C112.383 11.4852 113.741 6.86677 117.655 6.81911C119.037 6.72548 120.467 6.96211 121.943 7.43621ZM136.612 7.22256V17.9516H140.62V11.3908C140.737 9.75651 143.923 9.47221 143.947 11.3908V17.9516H148V11.2256C147.907 7.46004 143.993 5.63598 140.455 8.02777V7.22256H136.612ZM47.0759 24.5124L44.4047 40.4285H51.9737C57.1055 40.4285 59.2142 33.9868 55.5585 31.784C58.6752 28.8704 57.0819 24.4894 53.7311 24.4418L47.0759 24.5124ZM50.1454 34.0098L49.6065 36.6391H51.364C53.3556 36.7336 53.1215 34.0098 51.9737 34.0098H50.1454ZM51.0355 28.3018L50.5909 30.434L51.1299 30.457C52.7467 30.5515 53.684 28.3018 51.7387 28.3018H51.0355ZM57.2689 40.4523H61.8618L63.2445 37.6571H68.4463L69.2193 40.5H73.4602L69.7819 24.6069H65.4466L57.2689 40.4523ZM64.7443 34.3179H67.6033L66.6896 30.1251L64.7443 34.3179ZM74.9137 40.5H79.1554L80.2325 30.5285L86.3016 40.4523H90.8474L92.7455 24.5116H88.5046L87.3096 34.4831L81.2397 24.4639H76.8581L74.9137 40.5ZM95.7922 24.4648L92.8162 40.4523H97.2921L98.487 34.4831L102.494 40.4523H108.375L102.634 32.0674L109.969 24.4409H104.275L99.2601 30.0774L100.057 24.4409L95.7922 24.4648Z" fill="black"/>
</g>
<defs>
<clipPath id="clip0_0_1086">
<rect width="148" height="40" fill="white" transform="translate(0 0.5)"/>
</clipPath>
</defs>
</svg>
