<svg width="155" height="57" viewBox="0 0 155 57" fill="none" xmlns="http://www.w3.org/2000/svg">
<g clip-path="url(#clip0_0_1089)">
<mask id="mask0_0_1089" style="mask-type:luminance" maskUnits="userSpaceOnUse" x="0" y="2" width="156" height="44">
<path d="M155.093 2.05566H0.0930176V45.6112H155.093V2.05566Z" fill="white"/>
</mask>
<g mask="url(#mask0_0_1089)">
<path fill-rule="evenodd" clip-rule="evenodd" d="M9.71271 6.96608C9.71271 6.28789 9.8419 5.65226 10.0992 5.05716C10.3566 4.46413 10.7014 3.94276 11.1338 3.49306C11.5651 3.04335 12.0757 2.69128 12.6657 2.43682C13.2556 2.18237 13.8833 2.05566 14.5475 2.05566C15.2117 2.05566 15.8352 2.18237 16.4161 2.43682C16.9979 2.69128 17.5085 3.04335 17.949 3.49306C18.3894 3.94276 18.7342 4.46413 18.9835 5.05716C19.2327 5.65226 19.3579 6.28789 19.3579 6.96608C19.3579 7.6453 19.2327 8.28091 18.9835 8.87498C18.7342 9.46801 18.3894 9.99042 17.949 10.4391C17.5085 10.8888 16.9979 11.2409 16.4161 11.4953C15.8352 11.7498 15.2117 11.8775 14.5475 11.8775C13.8833 11.8775 13.2556 11.7498 12.6657 11.4953C12.0757 11.2409 11.5651 10.8888 11.1338 10.4391C10.7014 9.99042 10.3566 9.46801 10.0992 8.87498C9.8419 8.28091 9.71271 7.6453 9.71271 6.96608ZM0.0930176 35.5157V33.5558H22.2477V30.6042H0.0930176V19.7645C0.0930176 19.0873 0.218134 18.4507 0.467349 17.8566C0.715546 17.2626 1.06038 16.7411 1.50083 16.2915C1.94128 15.8429 2.45191 15.4908 3.03375 15.2363C3.61458 14.9818 4.23812 14.8541 4.90337 14.8541H24.217C24.8812 14.8541 25.5089 14.9818 26.0988 15.2363C26.6888 15.4908 27.1994 15.8429 27.6307 16.2915C28.0631 16.7411 28.4039 17.2626 28.653 17.8566C28.9022 18.4507 29.0264 19.0873 29.0264 19.7645V21.7243H6.82182V24.6759H29.0264V35.5157C29.0264 36.1938 28.9022 36.8304 28.653 37.4235C28.4039 38.0175 28.0631 38.5389 27.6307 38.9886C27.1994 39.4384 26.6888 39.7904 26.0988 40.0438C25.5089 40.2983 24.8812 40.426 24.217 40.426H4.90337C4.23812 40.426 3.61458 40.2983 3.03375 40.0438C2.45191 39.7904 1.94128 39.4384 1.50083 38.9886C1.06038 38.5389 0.715546 38.0175 0.467349 37.4235C0.218134 36.8304 0.0930176 36.1938 0.0930176 35.5157Z" fill="#2E2E2E"/>
<path d="M96.193 21.7593V40.4259H98.5515V34.1C99.0329 34.5956 99.5598 35.1794 100.132 35.8492C100.706 36.519 101.298 37.2635 101.91 38.0827C102.523 38.9007 103.077 39.6825 103.575 40.4259H106.526C106.123 39.781 105.694 39.1267 105.241 38.46C104.786 37.7944 104.315 37.1453 103.83 36.5128C103.345 35.8803 102.844 35.2748 102.331 34.6952C101.818 34.1176 101.308 33.5961 100.802 33.1327L105.968 27.5761H103.137L98.5515 32.55V21.7593H96.193Z" fill="#2E2E2E"/>
<path d="M48.85 41.4631C48.1481 41.4631 47.5073 41.4186 46.929 41.3296C46.3486 41.2416 45.8304 41.1368 45.3727 41.0139C44.9158 40.891 44.5293 40.7639 44.2138 40.6336C43.8984 40.5022 43.6571 40.3952 43.493 40.3095L44.1782 38.2193C44.4066 38.3464 44.7754 38.499 45.2837 38.6759C45.7928 38.8528 46.3386 38.9916 46.9221 39.0933C47.5064 39.195 48.0501 39.2459 48.5554 39.2459C49.5798 39.2459 50.3777 39.087 50.9502 38.7702C51.5217 38.4545 51.8845 38.0626 52.0388 37.5985C52.1921 37.1335 52.2682 36.6897 52.2682 36.268C52.2682 35.5583 52.0516 34.9852 51.6186 34.5509C51.1846 34.1154 50.6615 33.7691 50.0514 33.5117C49.4404 33.2531 48.8857 33.0244 48.3893 32.8209C47.9157 32.643 47.4679 32.4565 47.0466 32.2637C46.6245 32.0688 46.1992 31.8178 45.7692 31.5095C45.339 31.2012 44.9762 30.8326 44.6815 30.4067C44.3849 29.9809 44.1901 29.5529 44.0952 29.127C44.0012 28.7001 43.9538 28.2499 43.9538 27.7763C43.9538 27.0168 44.0882 26.3282 44.3562 25.7117C44.6241 25.0952 45.0068 24.5708 45.5032 24.1397C46.0005 23.7095 46.6046 23.378 47.3185 23.1449C48.0324 22.9129 48.8342 22.7964 49.7261 22.7964C50.4044 22.7964 51.0342 22.8409 51.6186 22.9299C52.202 23.0188 52.6844 23.1195 53.0671 23.2339C53.4497 23.3483 53.7237 23.4257 53.8897 23.468V25.7625C53.4873 25.6016 53.0532 25.4596 52.5885 25.3377C52.1228 25.2149 51.6443 25.1206 51.1509 25.0528C50.6576 24.985 50.175 24.951 49.7023 24.951C48.6454 24.951 47.8228 25.1831 47.2364 25.6481C46.6481 26.1131 46.3544 26.7806 46.3544 27.6503C46.3544 28.0889 46.4474 28.4617 46.6323 28.7658C46.8182 29.0698 47.0803 29.3378 47.4194 29.5698C47.7585 29.8029 48.1609 30.0158 48.6256 30.2096C49.0913 30.4046 49.6036 30.6069 50.1631 30.8188C50.7792 31.0635 51.3694 31.3209 51.938 31.5911C52.5055 31.8623 53.0038 32.197 53.4339 32.5985C53.864 33 54.2081 33.4926 54.4691 34.0752C54.7292 34.6588 54.8597 35.3803 54.8597 36.2426C54.8597 37.0795 54.7233 37.8221 54.4513 38.4725C54.1795 39.123 53.7849 39.6706 53.2688 40.1135C52.7517 40.5573 52.1228 40.8931 51.3822 41.1208C50.6407 41.3497 49.7963 41.4631 48.85 41.4631Z" fill="#2E2E2E"/>
<path fill-rule="evenodd" clip-rule="evenodd" d="M57.9597 45.611V27.2105H60.3407L60.391 29.1274C60.6162 28.6872 60.9336 28.2916 61.3433 27.9394C61.7528 27.5882 62.2095 27.3347 62.7154 27.1788C63.2204 27.0218 63.741 26.9443 64.2752 26.9443C65.4789 26.9443 66.4772 27.2636 67.2712 27.9012C68.0642 28.5409 68.6057 29.3831 68.8927 30.4269C69.1818 31.4729 69.3264 32.5325 69.3264 33.6061C69.3264 34.7146 69.2049 35.7043 68.9618 36.5752C68.7199 37.4461 68.3627 38.1813 67.8903 38.7774C67.4188 39.3735 66.8343 39.8287 66.1367 40.1416C65.439 40.4545 64.6388 40.6116 63.7368 40.6116C63.0015 40.6116 62.3667 40.516 61.8313 40.3251C61.2971 40.1352 60.8383 39.8785 60.4539 39.5581V45.611H57.9597ZM63.2225 38.5685C63.8248 38.5685 64.3527 38.4496 64.8074 38.2131C65.263 37.9755 65.5993 37.6795 65.8172 37.3241C66.034 36.9688 66.1974 36.6176 66.3053 36.2708C66.4226 35.8911 66.5107 35.4805 66.5693 35.0403C66.6269 34.6001 66.6562 34.1386 66.6562 33.657C66.6562 32.6164 66.5306 31.7391 66.2802 31.0241C66.0298 30.3091 65.6622 29.8053 65.1771 29.5136C64.6932 29.2207 64.1674 29.0765 63.5985 29.0765C63.0979 29.0765 62.6505 29.1964 62.2577 29.4382C61.8649 29.678 61.536 30.0153 61.2678 30.447C61.0007 30.8777 60.7975 31.3933 60.6602 31.9947C60.522 32.5952 60.4539 33.2508 60.4539 33.9614V37.3369C60.8289 37.7177 61.2426 38.0179 61.6942 38.2375C62.1456 38.4581 62.6547 38.5685 63.2225 38.5685Z" fill="#2E2E2E"/>
<path fill-rule="evenodd" clip-rule="evenodd" d="M73.897 40.2134C74.3944 40.3536 74.9185 40.4258 75.4702 40.4258C75.9207 40.4258 76.4074 40.3641 76.9294 40.2437C77.4512 40.1234 77.9113 39.9602 78.3065 39.7551C78.6995 39.5511 79.0264 39.324 79.2799 39.0739L79.3321 40.1746H81.7264V31.2501C81.7264 30.4989 81.6263 29.8522 81.4272 29.3102C81.2269 28.7671 80.9191 28.3203 80.5026 27.9698C80.0872 27.6203 79.559 27.3608 78.9178 27.1945C78.2756 27.027 77.5183 26.9443 76.6418 26.9443C76.2008 26.9443 75.7289 26.9663 75.2284 27.0124C74.7278 27.0584 74.3156 27.1107 73.9929 27.1693C73.6691 27.2279 73.1515 27.3493 72.4379 27.5324V29.5603C72.9907 29.3678 73.5679 29.2013 74.1708 29.0591C74.7747 28.9178 75.4318 28.8467 76.1454 28.8467C76.7153 28.8467 77.2499 28.9115 77.7504 29.0402C78.2521 29.17 78.6248 29.4117 78.8656 29.7664C79.1074 30.1211 79.2299 30.6245 79.2299 31.2753V31.9764C79.1862 31.9764 79.0988 31.9784 78.9678 31.9815C78.8369 31.9858 78.6973 31.9879 78.5535 31.9879C78.4108 31.9879 78.2712 31.9899 78.1403 31.9941C78.0093 31.9994 77.9252 32.0014 77.8921 32.0014C77.1189 32.0182 76.4191 32.0716 75.795 32.1636C75.1708 32.2557 74.6085 32.397 74.1069 32.5896C73.2153 32.939 72.5402 33.4339 72.0811 34.0722C71.6231 34.7115 71.3931 35.5225 71.3931 36.5082C71.3931 37.2166 71.5017 37.8204 71.7179 38.3163C71.9352 38.8133 72.2281 39.2173 72.5976 39.5301C72.9672 39.843 73.4007 40.071 73.897 40.2134ZM77.5279 38.2975C77.0741 38.4388 76.6215 38.5109 76.172 38.5109C75.7471 38.5109 75.3562 38.4388 74.9994 38.2975C74.6426 38.1552 74.3753 37.9114 74.1963 37.5651C74.0185 37.2187 73.929 36.8326 73.929 36.4077C73.929 35.9233 74.0185 35.5141 74.1963 35.1804C74.3753 34.8466 74.6436 34.5756 75.0058 34.3673C75.3669 34.1591 75.8184 34.0105 76.3627 33.9226C76.9059 33.8347 77.5471 33.7908 78.2852 33.7908H79.2299V37.3087C79.0765 37.4677 78.8677 37.6362 78.6057 37.8161C78.3416 37.9951 77.9816 38.1552 77.5279 38.2975Z" fill="#2E2E2E"/>
<path d="M85.8597 40.4258V27.0222H88.2933L88.3425 29.5584C88.6422 28.9452 89.005 28.4368 89.432 28.0313C89.8579 27.6257 90.302 27.3434 90.7633 27.1834C91.2245 27.0244 91.6676 26.9443 92.0946 26.9443C92.5301 26.9443 92.8629 26.9703 93.0931 27.0222V29.4546C92.8876 29.4027 92.5848 29.3767 92.1845 29.3767C91.5445 29.3767 90.9891 29.4957 90.5204 29.7325C90.0505 29.9705 89.6578 30.2745 89.3421 30.6454C89.0264 31.0153 88.791 31.4252 88.638 31.874C88.4838 32.3218 88.4078 32.7544 88.4078 33.1686V40.4258H85.8597Z" fill="#2E2E2E"/>
<path fill-rule="evenodd" clip-rule="evenodd" d="M111.637 40.4258C111.085 40.4258 110.559 40.3536 110.063 40.2134C109.566 40.071 109.133 39.843 108.765 39.5301C108.394 39.2173 108.102 38.8133 107.884 38.3163C107.668 37.8204 107.56 37.2166 107.56 36.5082C107.56 35.5225 107.789 34.7115 108.248 34.0722C108.706 33.4339 109.382 32.939 110.273 32.5896C110.775 32.397 111.338 32.2557 111.962 32.1636C112.587 32.0716 113.284 32.0182 114.058 32.0014C114.091 32.0014 114.175 31.9994 114.306 31.9941C114.438 31.9899 114.576 31.9879 114.72 31.9879C114.864 31.9879 115.003 31.9858 115.134 31.9815C115.265 31.9784 115.353 31.9764 115.395 31.9764V31.2753C115.395 30.6245 115.274 30.1211 115.033 29.7664C114.79 29.4117 114.419 29.17 113.918 29.0402C113.417 28.9115 112.88 28.8467 112.312 28.8467C111.598 28.8467 110.94 28.9178 110.336 29.0591C109.735 29.2013 109.156 29.3678 108.603 29.5603V27.5324C109.317 27.3493 109.837 27.2279 110.159 27.1693C110.481 27.1107 110.893 27.0584 111.395 27.0124C111.896 26.9663 112.368 26.9443 112.809 26.9443C113.684 26.9443 114.442 27.027 115.083 27.1945C115.724 27.3608 116.254 27.6203 116.671 27.9698C117.086 28.3203 117.394 28.7671 117.593 29.3102C117.793 29.8522 117.893 30.4989 117.893 31.2501V40.1746H115.498L115.446 39.0739C115.192 39.324 114.866 39.5511 114.472 39.7551C114.077 39.9602 113.618 40.1234 113.096 40.2437C112.573 40.3641 112.088 40.4258 111.637 40.4258ZM112.338 38.5109C112.788 38.5109 113.24 38.4388 113.695 38.2975C114.148 38.1552 114.507 37.9951 114.771 37.8161C115.036 37.6362 115.244 37.4677 115.395 37.3087V33.7908H114.453C113.713 33.7908 113.073 33.8347 112.529 33.9226C111.985 34.0105 111.533 34.1591 111.172 34.3673C110.812 34.5756 110.541 34.8466 110.363 35.1804C110.185 35.5141 110.095 35.9233 110.095 36.4077C110.095 36.8326 110.185 37.2187 110.363 37.5651C110.541 37.9114 110.81 38.1552 111.166 38.2975C111.523 38.4388 111.913 38.5109 112.338 38.5109Z" fill="#2E2E2E"/>
<path d="M123.827 40.3317C124.287 40.3944 124.794 40.4258 125.342 40.4258C126.088 40.4258 126.766 40.3463 127.376 40.1872C127.985 40.0293 128.504 39.7865 128.937 39.4621C129.37 39.1356 129.704 38.7276 129.94 38.2347C130.176 37.7419 130.293 37.1674 130.293 36.5082C130.293 35.9065 130.181 35.3509 129.957 34.8424C129.732 34.3338 129.352 33.9079 128.814 33.5658C128.275 33.2236 127.535 32.8971 126.593 32.5896C126.136 32.4389 125.726 32.2997 125.361 32.17C124.995 32.0401 124.686 31.901 124.435 31.7514C124.184 31.6007 123.989 31.4291 123.852 31.2376C123.715 31.0451 123.646 30.8118 123.646 30.5365C123.646 29.9934 123.838 29.5886 124.223 29.3217C124.608 29.056 125.205 28.922 126.014 28.922C126.698 28.922 127.324 28.9733 127.894 29.0779C128.463 29.1826 129.004 29.3259 129.516 29.5101V27.457C129.068 27.3148 128.548 27.1945 127.96 27.095C127.37 26.9945 126.674 26.9443 125.873 26.9443C125.198 26.9443 124.581 27.027 124.023 27.1945C123.464 27.3608 122.989 27.6036 122.596 27.9206C122.204 28.2366 121.898 28.6332 121.683 29.1093C121.467 29.5843 121.359 30.1274 121.359 30.7364C121.359 31.3046 121.446 31.7838 121.618 32.1762C121.791 32.5686 122.033 32.9024 122.343 33.1776C122.654 33.4538 123.018 33.6861 123.44 33.8787C123.861 34.0712 124.316 34.2543 124.812 34.429C125.229 34.5881 125.685 34.7503 126.179 34.9177C126.674 35.084 127.085 35.3038 127.411 35.5749C127.738 35.8458 127.9 36.2079 127.9 36.6578C127.9 36.933 127.836 37.2124 127.706 37.496C127.576 37.7795 127.302 38.0077 126.881 38.1782C126.46 38.3487 125.897 38.4346 125.189 38.4346C124.75 38.4346 124.311 38.4011 123.875 38.3352C123.44 38.2682 123.057 38.1824 122.726 38.0788C122.396 37.9742 122.026 37.834 121.618 37.6592L120.993 39.5364C121.158 39.6201 121.374 39.7122 121.642 39.8126C121.909 39.9131 122.225 40.0073 122.591 40.0994C122.956 40.1914 123.369 40.2688 123.827 40.3317Z" fill="#2E2E2E"/>
<path d="M136.71 40.4258C136.16 40.4258 135.654 40.3944 135.194 40.3317C134.735 40.2688 134.323 40.1914 133.958 40.0994C133.591 40.0073 133.275 39.9131 133.009 39.8126C132.741 39.7122 132.525 39.6201 132.36 39.5364L132.985 37.6592C133.393 37.834 133.763 37.9742 134.093 38.0788C134.423 38.1824 134.807 38.2682 135.242 38.3352C135.678 38.4011 136.117 38.4346 136.556 38.4346C137.264 38.4346 137.827 38.3487 138.248 38.1782C138.668 38.0077 138.943 37.7795 139.072 37.496C139.202 37.2124 139.267 36.933 139.267 36.6578C139.267 36.2079 139.104 35.8458 138.778 35.5749C138.451 35.3038 138.041 35.084 137.546 34.9177C137.052 34.7503 136.595 34.5881 136.179 34.429C135.683 34.2543 135.227 34.0712 134.807 33.8787C134.385 33.6861 134.02 33.4538 133.71 33.1776C133.399 32.9024 133.157 32.5686 132.985 32.1762C132.812 31.7838 132.727 31.3046 132.727 30.7364C132.727 30.1274 132.834 29.5843 133.05 29.1093C133.265 28.6332 133.571 28.2366 133.962 27.9206C134.356 27.6036 134.83 27.3608 135.389 27.1945C135.947 27.027 136.564 26.9443 137.241 26.9443C138.041 26.9443 138.736 26.9945 139.326 27.095C139.914 27.1945 140.434 27.3148 140.883 27.457V29.5101C140.371 29.3259 139.83 29.1826 139.26 29.0779C138.691 28.9733 138.065 28.922 137.381 28.922C136.572 28.922 135.974 29.056 135.59 29.3217C135.205 29.5886 135.012 29.9934 135.012 30.5365C135.012 30.8118 135.082 31.0451 135.219 31.2376C135.355 31.4291 135.551 31.6007 135.802 31.7514C136.053 31.901 136.362 32.0401 136.728 32.17C137.092 32.2997 137.503 32.4389 137.959 32.5896C138.902 32.8971 139.642 33.2236 140.181 33.5658C140.718 33.9079 141.1 34.3338 141.324 34.8424C141.548 35.3509 141.66 35.9065 141.66 36.5082C141.66 37.1674 141.543 37.7419 141.307 38.2347C141.071 38.7276 140.737 39.1356 140.304 39.4621C139.871 39.7865 139.351 40.0293 138.743 40.1872C138.133 40.3463 137.455 40.4258 136.71 40.4258Z" fill="#2E2E2E"/>
<path fill-rule="evenodd" clip-rule="evenodd" d="M148.123 39.9547C148.845 40.2691 149.671 40.4258 150.599 40.4258C151.385 40.4258 152.075 40.3864 152.67 40.3085C153.263 40.2297 153.815 40.1083 154.327 39.9412L153.866 38.0545C153.481 38.1708 153.034 38.2684 152.522 38.3461C152.011 38.4261 151.485 38.4655 150.941 38.4655C149.769 38.4655 148.885 38.12 148.287 37.4288C147.689 36.7376 147.344 35.7425 147.249 34.4432H155.045C155.077 34.0125 155.093 33.5113 155.093 32.9394C155.093 31.0113 154.68 29.5304 153.855 28.4957C153.029 27.4611 151.803 26.9443 150.174 26.9443C149.301 26.9443 148.527 27.1073 147.85 27.4341C147.175 27.761 146.608 28.2229 146.153 28.8186C145.696 29.4141 145.351 30.1292 145.115 30.9594C144.878 31.7917 144.76 32.709 144.76 33.7105C144.76 34.7358 144.89 35.6635 145.149 36.4907C145.41 37.3177 145.788 38.0245 146.288 38.6066C146.787 39.1909 147.398 39.6403 148.123 39.9547ZM152.628 32.6675H147.202C147.273 31.4337 147.548 30.4748 148.028 29.7868C148.508 29.0997 149.203 28.7562 150.115 28.7562C150.98 28.7562 151.616 29.0468 152.021 29.6259C152.426 30.205 152.628 31.0248 152.628 32.0833V32.6675Z" fill="#2E2E2E"/>
</g>
</g>
<defs>
<clipPath id="clip0_0_1089">
<rect width="155" height="56" fill="white" transform="translate(0 0.5)"/>
</clipPath>
</defs>
</svg>
