<svg width="218" height="43" viewBox="0 0 218 43" fill="none" xmlns="http://www.w3.org/2000/svg">
<g clip-path="url(#clip0_0_1088)">
<path d="M14.9102 6.50027C17.8769 6.50028 20.777 7.38003 23.2437 9.02824C25.7104 10.6765 27.6329 13.0192 28.7682 15.76C29.9035 18.5008 30.2006 21.5169 29.6218 24.4265C29.043 27.3362 27.6144 30.0089 25.5166 32.1067C23.4188 34.2045 20.7461 35.633 17.8364 36.2118C14.9268 36.7905 11.9107 36.4935 9.16992 35.3582C6.42903 34.2228 4.08639 32.3002 2.43819 29.8336C0.790003 27.3668 -0.0897121 24.4667 -0.0896962 21.5001C-0.101562 19.5269 0.278323 17.571 1.02794 15.7458C1.77756 13.9206 2.882 12.2623 4.27724 10.8671C5.67249 9.47187 7.33078 8.36744 9.15603 7.61784C10.9812 6.86824 12.9372 6.48838 14.9102 6.50027ZM7.36192 15.1775V17.7904H22.4586V15.1775H7.36192ZM9.97486 24.9195C9.97486 24.113 10.1684 23.6291 10.4909 23.3066C10.8389 22.9752 11.3009 22.7904 11.7813 22.7904C12.2617 22.7904 12.7237 22.9752 13.0716 23.3066C13.3942 23.6291 13.5877 24.113 13.5877 24.9195V27.8225H16.2328V24.9195C16.2328 24.113 16.4263 23.6291 16.749 23.3066C17.0969 22.9752 17.5589 22.7904 18.0393 22.7904C18.5196 22.7904 18.9816 22.9752 19.3295 23.3066C19.6523 23.6291 19.8458 24.113 19.8458 24.9195V27.8225H22.4586V20.1775H7.36192V27.8225H9.97486V24.9195Z" fill="#BBBBBB"/>
<path d="M46.3483 15.1672C46.3483 18.3875 50.9096 19.0391 54.3307 21.0326C56.4595 22.2594 58.208 24.2529 58.208 27.6263C58.208 32.4567 54.2927 35.4851 49.9595 35.4851C45.626 35.4851 42.5091 33.3767 41.2927 32.0347L43.0032 28.3931H43.1552C44.8781 30.1387 47.2131 31.1302 49.6553 31.1532C51.5178 31.1532 53.5325 30.0413 53.5325 27.8563C53.5325 24.5977 48.9712 23.9461 45.5499 21.9526C43.4213 20.7259 41.6729 18.7323 41.6729 15.3589C41.6729 10.5287 45.626 7.5 50.0353 7.5C53.0699 7.50639 55.9897 8.67058 58.208 10.7587L56.4974 14.4005H56.3454C54.8631 13.0587 53.0004 11.832 50.4155 11.832C48.363 11.832 46.3483 12.9438 46.3483 15.1672ZM58.8923 19.5757H63.3778L66.0385 27.3581H66.1907L69.9537 16.5091H72.9948L76.9481 27.473H77.1001L80.9013 16.5091H85.1586L78.6586 34.9102H75.6937L71.5122 23.3327H71.3602L67.3309 34.9102H64.2899L58.8923 19.5757ZM87.0212 8.84185H91.5448V13.2504H87.0212V8.84185ZM87.0974 16.5091H91.4687V34.9102H87.0974V16.5091ZM101.656 35.4851C99.1204 35.4983 96.6744 34.5391 94.8138 32.8016L96.0302 29.5048H96.1823C97.5507 30.7315 99.2991 31.6899 101.314 31.6899C102.834 31.6899 103.823 31.0383 103.823 29.8881C103.823 28.6997 102.568 28.2396 101.01 27.7414C98.5008 26.9361 95.1939 25.7094 95.1939 21.8759C95.1939 18.349 97.9307 15.934 101.846 15.934C104.059 15.9579 106.2 16.7271 107.928 18.1191L106.712 21.4542H106.559C105.267 20.4191 103.595 19.7292 102.188 19.7292C100.477 19.7292 99.4892 20.381 99.4892 21.5309C99.4892 22.7194 100.744 23.1794 102.303 23.6778C104.811 24.4827 108.118 25.7094 108.118 29.5431C108.118 33.0699 105.381 35.4851 101.656 35.4851ZM117.279 35.4851C114.744 35.4983 112.298 34.539 110.437 32.8016L111.653 29.5048H111.805C113.174 30.7315 114.923 31.6899 116.937 31.6899C118.458 31.6899 119.445 31.0383 119.445 29.8881C119.445 28.6997 118.192 28.2396 116.632 27.7414C114.124 26.9361 110.817 25.7094 110.817 21.8759C110.817 18.349 113.553 15.934 117.469 15.934C119.681 15.9579 121.822 16.7271 123.551 18.1191L122.335 21.4542H122.183C120.89 20.4191 119.217 19.7292 117.811 19.7292C116.1 19.7292 115.112 20.381 115.112 21.5309C115.112 22.7194 116.366 23.1794 117.925 23.6778C120.434 24.4827 123.741 25.7094 123.741 29.5431C123.741 33.0699 121.004 35.4851 117.279 35.4851ZM143.849 16.5091V42.9605H139.478V33.5683C138.157 34.7849 136.438 35.4673 134.65 35.4851C129.48 35.4851 126.174 31.4598 126.174 25.9011C126.174 20.6876 129.708 15.934 135.106 15.934C136.784 15.9618 138.403 16.5556 139.706 17.6206H139.858V16.5091H143.849ZM139.478 21.3009C138.446 20.4271 137.139 19.9516 135.79 19.9591C132.674 19.9591 130.659 22.4126 130.659 25.8629C130.659 28.9681 132.408 31.4598 135.525 31.4598C136.267 31.4656 137.001 31.3153 137.682 31.0182C138.363 30.7212 138.974 30.284 139.478 29.7348V21.3009ZM151.908 27.5112C151.908 29.1214 152.174 29.8116 152.631 30.3865C152.943 30.7477 153.329 31.0372 153.761 31.2356C154.194 31.4339 154.664 31.5366 155.139 31.5366C155.614 31.5366 156.084 31.4339 156.517 31.2356C156.949 31.0372 157.335 30.7477 157.648 30.3865C158.104 29.8116 158.37 29.1214 158.37 27.5112V16.5091H162.741V27.0513C162.741 30.0413 161.943 31.9198 160.575 33.2616C159.831 33.991 158.951 34.5636 157.984 34.9453C157.018 35.3272 155.986 35.5107 154.949 35.4851C153.965 35.5005 152.988 35.3187 152.075 34.9501C151.161 34.5815 150.329 34.0337 149.627 33.3383C148.297 31.9966 147.536 30.0797 147.536 27.0513V16.5091H151.908V27.5112ZM165.745 25.9011C165.745 20.0358 169.698 15.934 175.247 15.934C180.797 15.934 184.751 20.0358 184.751 25.5178C184.751 31.3833 180.797 35.4851 175.247 35.4851C169.698 35.4851 165.745 31.3833 165.745 25.9011ZM175.247 19.9591C172.321 19.9591 170.23 22.4511 170.23 25.7095C170.23 28.9682 172.321 31.4599 175.247 31.4599C178.175 31.4599 180.265 28.9682 180.265 25.7095C180.265 22.4511 178.175 19.9591 175.247 19.9591ZM199.575 31.3065V34.7185C198.334 35.2369 197.003 35.4976 195.66 35.4851C193.721 35.4851 192.277 34.9102 191.289 33.9132C190.224 32.84 189.693 31.2681 189.693 28.4696V20.3426H185.51V16.5091H189.693V10.3754H194.064V16.5091H199.575V20.3426H194.064V29.0447C194.064 30.0032 194.254 30.5398 194.558 30.8848C195.089 31.4982 195.964 31.6515 196.915 31.6515C197.762 31.6405 198.605 31.5247 199.423 31.3065H199.575ZM210.295 35.4851C204.973 35.4851 200.981 31.6899 200.981 25.9011C200.981 20.6108 204.175 15.934 209.838 15.934C214.666 15.934 217.897 19.8059 217.897 25.1344V26.5911H205.543C205.657 29.4664 207.634 31.6133 210.523 31.6133C212.386 31.6133 214.096 30.8466 215.655 29.5431H215.806L217.441 32.6099C215.73 34.4501 213.183 35.4851 210.295 35.4851ZM213.526 23.141C213.516 22.6746 213.413 22.2148 213.227 21.7883C213.039 21.3617 212.77 20.9769 212.434 20.6561C212.098 20.3352 211.703 20.0847 211.27 19.919C210.838 19.7533 210.377 19.6758 209.914 19.6908C207.71 19.6908 206.228 21.1858 205.771 23.141H213.526Z" fill="#323232"/>
</g>
<defs>
<clipPath id="clip0_0_1088">
<rect width="218" height="42" fill="white" transform="translate(0 0.5)"/>
</clipPath>
</defs>
</svg>
