<svg width="219" height="34" viewBox="0 0 219 34" fill="none" xmlns="http://www.w3.org/2000/svg">
<path opacity="0.2" d="M15.3508 33.8762L30.859 12.5035C34.6377 7.29595 30.9174 0 24.4833 0C24.4202 0 24.361 0.0302186 24.3239 0.0812751L0.0577049 33.5238C-0.0862045 33.7221 0.055481 34 0.300518 34H15.108C15.2041 34 15.2944 33.954 15.3508 33.8762Z" fill="white"/>
<path opacity="0.2" d="M43.1321 33.8762L67.3674 0.476187C67.5114 0.277861 67.3697 0 67.1246 0H52.3172C52.2211 0 52.1308 0.0460347 52.0744 0.123813L27.839 33.5238C27.6951 33.7221 27.8368 34 28.0818 34H42.8893C42.9854 34 43.0756 33.954 43.1321 33.8762Z" fill="white"/>
<path opacity="0.2" d="M63.0344 33.8762L87.2698 0.476187C87.4137 0.277861 87.272 0 87.027 0H78.1855C74.3416 0 70.7304 1.84139 68.473 4.95251L47.7413 33.5238C47.5974 33.7221 47.7391 34 47.9841 34H62.7916C62.8877 34 62.978 33.954 63.0344 33.8762Z" fill="white"/>
<path d="M212.596 28.5195C210.921 28.5195 209.494 28.1463 208.317 27.4C207.156 26.637 206.343 25.5839 205.879 24.2404L208.342 22.7975C209.038 24.7546 210.481 25.7331 212.67 25.7331C213.732 25.7331 214.536 25.5258 215.084 25.1112C215.631 24.6965 215.905 24.1409 215.905 23.4444C215.905 22.7478 215.614 22.2087 215.034 21.8273C214.453 21.4458 213.425 21.0312 211.949 20.5834C210.44 20.1356 209.221 19.6048 208.292 18.9912C207.164 18.1951 206.6 17.0258 206.6 15.4834C206.6 13.9409 207.148 12.7219 208.242 11.8263C209.32 10.9141 210.639 10.458 212.198 10.458C213.574 10.458 214.785 10.798 215.83 11.478C216.891 12.1414 217.704 13.0785 218.268 14.2892L215.855 15.6824C215.125 14.057 213.906 13.2444 212.198 13.2444C211.369 13.2444 210.705 13.4434 210.208 13.8414C209.71 14.2229 209.461 14.7453 209.461 15.4087C209.461 16.0556 209.71 16.5697 210.208 16.9512C210.705 17.3161 211.626 17.7058 212.969 18.1204C213.798 18.4024 214.279 18.5683 214.412 18.618C214.628 18.6844 215.059 18.8502 215.706 19.1156C216.236 19.3312 216.659 19.5634 216.974 19.8122C218.268 20.8239 218.865 22.018 218.766 23.3946C218.766 24.9702 218.193 26.2224 217.049 27.1512C215.938 28.0634 214.453 28.5195 212.596 28.5195Z" fill="white"/>
<path d="M196.965 20.7571V25.459H204.678V28.1956H194.104V10.781H204.553V13.5176H196.965V18.0454H203.931V20.7571H196.965Z" fill="white"/>
<path d="M186.696 28.1956H183.263L177.218 10.781H180.352L184.98 24.7376L189.632 10.781H192.742L186.696 28.1956Z" fill="white"/>
<path d="M171.601 10.781V25.459H178.691V28.1956H168.74V10.781H171.601Z" fill="white"/>
<path d="M163.99 25.9073C162.249 27.6487 160.117 28.5195 157.596 28.5195C155.075 28.5195 152.936 27.6487 151.178 25.9073C149.436 24.1492 148.566 22.0097 148.566 19.4887C148.566 16.9678 149.436 14.8365 151.178 13.0951C152.936 11.337 155.075 10.458 157.596 10.458C160.117 10.458 162.249 11.337 163.99 13.0951C165.748 14.8365 166.627 16.9678 166.627 19.4887C166.627 22.0097 165.748 24.1492 163.99 25.9073ZM153.193 23.9668C154.404 25.1444 155.872 25.7331 157.596 25.7331C159.338 25.7331 160.797 25.1444 161.975 23.9668C163.169 22.7726 163.766 21.28 163.766 19.4887C163.766 17.6975 163.169 16.2131 161.975 15.0356C160.797 13.8414 159.338 13.2444 157.596 13.2444C155.855 13.2444 154.387 13.8414 153.193 15.0356C152.015 16.2131 151.427 17.6975 151.427 19.4887C151.427 21.2634 152.015 22.7561 153.193 23.9668Z" fill="white"/>
<path d="M132.825 28.1956H129.516L124.59 10.781H127.6L131.257 24.3893L135.213 10.781H137.85L141.781 24.3893L145.438 10.781H148.448L143.522 28.1956H140.213L136.531 15.4829L132.825 28.1956Z" fill="white"/>
<path d="M110.278 20.7571V25.459H117.99V28.1956H107.417V10.781H117.866V13.5176H110.278V18.0454H117.244V20.7571H110.278Z" fill="white"/>
<path d="M99.4012 28.5195C97.726 28.5195 96.2997 28.1463 95.1221 27.4C93.9612 26.637 93.1485 25.5839 92.6841 24.2404L95.147 22.7975C95.8436 24.7546 97.2865 25.7331 99.4758 25.7331C100.537 25.7331 101.342 25.5258 101.889 25.1112C102.436 24.6965 102.71 24.1409 102.71 23.4444C102.71 22.7478 102.42 22.2087 101.839 21.8273C101.259 21.4458 100.23 21.0312 98.7543 20.5834C97.2451 20.1356 96.026 19.6048 95.0973 18.9912C93.9694 18.1951 93.4055 17.0258 93.4055 15.4834C93.4055 13.9409 93.9529 12.7219 95.0475 11.8263C96.1255 10.9141 97.4441 10.458 99.0031 10.458C100.38 10.458 101.59 10.798 102.635 11.478C103.697 12.1414 104.509 13.0785 105.073 14.2892L102.66 15.6824C101.93 14.057 100.711 13.2444 99.0031 13.2444C98.1738 13.2444 97.5104 13.4434 97.0129 13.8414C96.5153 14.2229 96.2665 14.7453 96.2665 15.4087C96.2665 16.0556 96.5153 16.5697 97.0129 16.9512C97.5104 17.3161 98.4309 17.7058 99.7743 18.1204C100.604 18.4024 101.085 18.5683 101.217 18.618C101.433 18.6844 101.864 18.8502 102.511 19.1156C103.042 19.3312 103.465 19.5634 103.78 19.8122C105.073 20.8239 105.67 22.018 105.571 23.3946C105.571 24.9702 104.999 26.2224 103.854 27.1512C102.743 28.0634 101.259 28.5195 99.4012 28.5195Z" fill="white"/>
<path d="M88.0039 28.1956V10.781H90.8649V28.1956H88.0039Z" fill="white"/>
<path d="M70.6389 28.1956H67.3302L62.4043 10.781H65.4145L69.0716 24.3893L73.0272 10.781H75.6643L79.595 24.3893L83.2521 10.781H86.2623L81.3365 28.1956H78.0277L74.3458 15.4829L70.6389 28.1956Z" fill="white"/>
<path d="M27.9839 33.8745L4.09534 0.474523C3.95333 0.275982 4.09525 0 4.33935 0H13.3896C17.2933 0 20.953 1.89879 23.2007 5.09037L43.2279 33.5273C43.3679 33.726 43.2257 34 42.9826 34H28.2279C28.1311 34 28.0402 33.9533 27.9839 33.8745Z" fill="white"/>
<path d="M47.9878 33.8745L24.0992 0.474523C23.9572 0.275982 24.0992 0 24.3433 0H33.4816C37.3939 0 41.0606 1.90717 43.3068 5.11041L63.2336 33.5278C63.373 33.7266 63.2308 34 62.988 34H48.2318C48.135 34 48.0441 33.9533 47.9878 33.8745Z" fill="white"/>
</svg>
