<svg width="17" height="18" viewBox="0 0 17 18" fill="none" xmlns="http://www.w3.org/2000/svg">
<g clip-path="url(#clip0_27_1910)">
<path d="M5.84375 1.29688C5.84375 0.855273 5.48848 0.5 5.04688 0.5C4.60527 0.5 4.25 0.855273 4.25 1.29688V2.625C3.07793 2.625 2.125 3.57793 2.125 4.75H0.796875C0.355273 4.75 0 5.10527 0 5.54688C0 5.98848 0.355273 6.34375 0.796875 6.34375H2.125V8.20312H0.796875C0.355273 8.20312 0 8.5584 0 9C0 9.4416 0.355273 9.79688 0.796875 9.79688H2.125V11.6562H0.796875C0.355273 11.6562 0 12.0115 0 12.4531C0 12.8947 0.355273 13.25 0.796875 13.25H2.125C2.125 14.4221 3.07793 15.375 4.25 15.375V16.7031C4.25 17.1447 4.60527 17.5 5.04688 17.5C5.48848 17.5 5.84375 17.1447 5.84375 16.7031V15.375H7.70312V16.7031C7.70312 17.1447 8.0584 17.5 8.5 17.5C8.9416 17.5 9.29688 17.1447 9.29688 16.7031V15.375H11.1562V16.7031C11.1562 17.1447 11.5115 17.5 11.9531 17.5C12.3947 17.5 12.75 17.1447 12.75 16.7031V15.375C13.9221 15.375 14.875 14.4221 14.875 13.25H16.2031C16.6447 13.25 17 12.8947 17 12.4531C17 12.0115 16.6447 11.6562 16.2031 11.6562H14.875V9.79688H16.2031C16.6447 9.79688 17 9.4416 17 9C17 8.5584 16.6447 8.20312 16.2031 8.20312H14.875V6.34375H16.2031C16.6447 6.34375 17 5.98848 17 5.54688C17 5.10527 16.6447 4.75 16.2031 4.75H14.875C14.875 3.57793 13.9221 2.625 12.75 2.625V1.29688C12.75 0.855273 12.3947 0.5 11.9531 0.5C11.5115 0.5 11.1562 0.855273 11.1562 1.29688V2.625H9.29688V1.29688C9.29688 0.855273 8.9416 0.5 8.5 0.5C8.0584 0.5 7.70312 0.855273 7.70312 1.29688V2.625H5.84375V1.29688ZM5.3125 4.75H11.6875C12.2752 4.75 12.75 5.2248 12.75 5.8125V12.1875C12.75 12.7752 12.2752 13.25 11.6875 13.25H5.3125C4.7248 13.25 4.25 12.7752 4.25 12.1875V5.8125C4.25 5.2248 4.7248 4.75 5.3125 4.75ZM11.6875 5.8125H5.3125V12.1875H11.6875V5.8125Z" fill="white"/>
</g>
<defs>
<clipPath id="clip0_27_1910">
<rect width="17" height="17" fill="white" transform="translate(0 0.5)"/>
</clipPath>
</defs>
</svg>
