<svg width="22" height="14" viewBox="0 0 22 14" fill="none" xmlns="http://www.w3.org/2000/svg">
<path d="M15.2126 6.78964C16.9479 6.78964 18.4407 5.29473 18.4407 3.34801C18.4407 1.42479 16.94 0 15.2126 0C13.4856 0 11.9845 1.45587 11.9845 3.36355C11.9845 5.29473 13.4774 6.78964 15.2126 6.78964ZM5.9235 6.96892C7.42461 6.96892 8.73243 5.66049 8.73243 3.97076C8.73243 2.29695 7.41636 1.05864 5.9235 1.05864C4.42279 1.05864 3.09886 2.32803 3.10711 3.98668C3.10711 5.66049 4.41454 6.96892 5.92389 6.96892M1.42057 14H7.55386C6.71471 12.8242 7.73968 10.4572 9.47493 9.16466C8.57921 8.58853 7.42461 8.16022 5.91564 8.16022C2.27582 8.15985 0 10.7524 0 12.9095C0 13.6107 0.403464 14 1.42057 14ZM10.1365 14H20.2809C21.5478 14 22 13.6494 22 12.9641C22 10.9552 19.393 8.18335 15.2047 8.18335C11.0244 8.18335 8.41736 10.9552 8.41736 12.9645C8.41736 13.6494 8.86914 14 10.1365 14Z" fill="white"/>
</svg>
