<svg width="20" height="16" viewBox="0 0 20 16" fill="none" xmlns="http://www.w3.org/2000/svg">
<rect x="0.81958" y="2.88513" width="18.361" height="13.115" rx="1" fill="white"/>
<rect x="2.9176" y="2.09827" width="1.5738" height="2.36069" rx="0.786898" fill="white"/>
<rect x="15.2463" y="2.09827" width="1.5738" height="2.36069" rx="0.786898" fill="white"/>
<rect x="6.32886" y="-0.00012207" width="7.34438" height="1.5738" rx="0.786898" fill="white"/>
<rect x="8.68958" y="6.5575" width="2.62299" height="1.5738" rx="0.786898" fill="#0E2B40"/>
<rect x="7.90161" y="-0.00012207" width="3.93449" height="1.5738" rx="0.786898" transform="rotate(90 7.90161 -0.00012207)" fill="white"/>
<rect x="13.6736" y="-0.00012207" width="3.93449" height="1.5738" rx="0.786898" transform="rotate(90 13.6736 -0.00012207)" fill="white"/>
<path d="M0.81958 7.34439C0.81958 6.9098 1.17189 6.5575 1.60648 6.5575H6.85247C7.28706 6.5575 7.63937 6.9098 7.63937 7.34439C7.63937 7.77899 7.28706 8.13129 6.85247 8.13129H1.60648C1.17189 8.13129 0.81958 7.77899 0.81958 7.34439Z" fill="#0E2B40"/>
<path d="M12.3604 7.34439C12.3604 6.9098 12.7127 6.5575 13.1472 6.5575H18.3932C18.8278 6.5575 19.1801 6.9098 19.1801 7.34439C19.1801 7.77899 18.8278 8.13129 18.3932 8.13129H13.1472C12.7127 8.13129 12.3604 7.77899 12.3604 7.34439Z" fill="#0E2B40"/>
</svg>
