<svg width="20" height="20" viewBox="0 0 20 20" fill="none" xmlns="http://www.w3.org/2000/svg">
<path d="M9.32524 7.46398L9.32446 9.32718C9.85097 9.32691 11.5065 9.45007 11.5064 8.39526C11.5064 7.297 9.85114 7.46472 9.32524 7.46398ZM9.32507 10.2679L9.32437 12.3225C9.95638 12.3223 11.9406 12.4536 11.9401 11.2951C11.9405 10.0854 9.95788 10.2675 9.32507 10.2679Z" fill="white"/>
<path d="M9.99991 1.74928C5.44293 1.7498 1.75064 5.44363 1.75116 10.0006C1.75048 14.5562 5.4447 18.2501 9.99868 18.2512C14.5557 18.2507 18.2506 14.557 18.2492 10.0002C18.2497 5.44385 14.5555 1.74996 9.99991 1.74928ZM13.2469 7.97913C13.3253 8.78816 12.986 9.27341 12.4457 9.54934C13.3369 9.76271 13.8943 10.2924 13.7852 11.479C13.6487 12.9516 12.5512 13.3469 10.9813 13.4372L10.9811 14.9854L10.0488 14.9857L10.0486 13.4596C9.79977 13.4595 9.55098 13.4568 9.30225 13.4517L9.30288 14.9862L8.37098 14.9846L8.37056 13.4339C8.15155 13.4324 7.92934 13.4282 7.70392 13.4283L6.48855 13.4293L6.67503 12.3144C6.67503 12.3144 7.36509 12.3252 7.35309 12.3146C7.61754 12.3141 7.68693 12.125 7.70302 12.0053L7.70477 9.55915L7.80266 9.55941C7.76993 9.55515 7.73698 9.55286 7.70397 9.55254L7.70407 7.80606C7.66776 7.61606 7.54578 7.39637 7.16722 7.39633C7.17944 7.38392 6.48936 7.3969 6.48936 7.3969L6.48839 6.40014L7.77643 6.40055L7.77663 6.40476C7.97002 6.40475 8.16788 6.4022 8.37021 6.39713L8.36998 4.86425L9.30307 4.86384L9.30332 6.36609C9.55217 6.36104 9.80361 6.35619 10.0486 6.35635L10.049 4.86331L10.9821 4.8629L10.9823 6.39578C12.1864 6.50304 13.1399 6.8744 13.2469 7.97913Z" fill="white"/>
</svg>
