<svg width="18" height="18" viewBox="0 0 18 18" fill="none" xmlns="http://www.w3.org/2000/svg">
<path fill-rule="evenodd" clip-rule="evenodd" d="M9 17.25C13.5565 17.25 17.25 13.5565 17.25 9C17.25 4.44353 13.5565 0.75 9 0.75C4.44353 0.75 0.75 4.44353 0.75 9C0.75 13.5565 4.44353 17.25 9 17.25ZM4.66875 9C4.66875 8.78935 4.68332 8.5831 4.71247 8.38125H7.35C7.5141 8.38125 7.67148 8.31606 7.78752 8.20002C7.90356 8.08398 7.96875 7.9266 7.96875 7.7625C7.96875 7.5984 7.90356 7.44102 7.78752 7.32498C7.67148 7.20894 7.5141 7.14375 7.35 7.14375H5.08537C5.34163 6.60299 5.70716 6.1212 6.15891 5.72875C6.61066 5.33631 7.13883 5.04174 7.71011 4.86361C8.28139 4.68549 8.88338 4.62767 9.47812 4.69381C10.0729 4.75995 10.6474 4.94861 11.1656 5.2479C11.236 5.28917 11.3139 5.31611 11.3947 5.32716C11.4756 5.33822 11.5578 5.33317 11.6367 5.31231C11.7156 5.29145 11.7896 5.2552 11.8544 5.20563C11.9192 5.15606 11.9736 5.09416 12.0144 5.0235C12.0552 4.95283 12.0816 4.87479 12.0921 4.79387C12.1027 4.71295 12.0971 4.63075 12.0757 4.552C12.0543 4.47325 12.0176 4.3995 11.9676 4.33501C11.9176 4.27052 11.8553 4.21656 11.7844 4.17622C11.0762 3.76779 10.2868 3.52021 9.47221 3.45105C8.65762 3.3819 7.83779 3.49287 7.0709 3.77608C6.304 4.0593 5.60883 4.50782 5.03471 5.08983C4.4606 5.67183 4.0216 6.37306 3.74888 7.14375H3.225C3.0609 7.14375 2.90352 7.20894 2.78748 7.32498C2.67144 7.44102 2.60625 7.5984 2.60625 7.7625C2.60625 7.9266 2.67144 8.08398 2.78748 8.20002C2.90352 8.31606 3.0609 8.38125 3.225 8.38125H3.46507C3.41944 8.79249 3.41944 9.20751 3.46507 9.61875H3.225C3.0609 9.61875 2.90352 9.68394 2.78748 9.79998C2.67144 9.91602 2.60625 10.0734 2.60625 10.2375C2.60625 10.4016 2.67144 10.559 2.78748 10.675C2.90352 10.7911 3.0609 10.8562 3.225 10.8562H3.74805C4.02081 11.6271 4.45992 12.3285 5.03419 12.9105C5.60847 13.4926 6.30383 13.9412 7.07093 14.2243C7.83803 14.5075 8.65805 14.6183 9.47279 14.5489C10.2875 14.4796 11.077 14.2317 11.7852 13.823C11.8575 13.7833 11.9212 13.7296 11.9724 13.665C12.0237 13.6004 12.0615 13.5263 12.0837 13.4469C12.1059 13.3674 12.112 13.2844 12.1016 13.2026C12.0912 13.1208 12.0646 13.0419 12.0233 12.9705C11.982 12.8991 11.9269 12.8367 11.8611 12.787C11.7954 12.7372 11.7204 12.7011 11.6404 12.6808C11.5605 12.6604 11.4774 12.6563 11.3958 12.6685C11.3143 12.6807 11.236 12.7092 11.1656 12.7521C10.6474 13.0514 10.0729 13.24 9.47812 13.3062C8.88338 13.3723 8.28139 13.3145 7.71011 13.1364C7.13883 12.9583 6.61066 12.6637 6.15891 12.2712C5.70716 11.8788 5.34163 11.397 5.08537 10.8562H7.35C7.5141 10.8562 7.67148 10.7911 7.78752 10.675C7.90356 10.559 7.96875 10.4016 7.96875 10.2375C7.96875 10.0734 7.90356 9.91602 7.78752 9.79998C7.67148 9.68394 7.5141 9.61875 7.35 9.61875H4.71247C4.68239 9.41389 4.66777 9.20706 4.66875 9Z" fill="white"/>
</svg>
