<svg width="72" height="72" viewBox="0 0 72 72" fill="none" xmlns="http://www.w3.org/2000/svg">
<path fill-rule="evenodd" clip-rule="evenodd" d="M0.0173035 6.31397C0.00583649 6.52733 5.34058e-05 6.74152 5.34058e-05 6.95647C5.34058e-05 7.17142 0.00583649 7.38557 0.0173035 7.59893C0.00583649 7.81229 5.34058e-05 8.02648 5.34058e-05 8.24143C5.34058e-05 19.5956 16.1178 28.8 36 28.8C55.8823 28.8 72 19.5956 72 8.24143C72 8.02648 71.9942 7.81231 71.9828 7.59895C71.9942 7.38559 72 7.17141 72 6.95647C72 6.74152 71.9942 6.52735 71.9828 6.31399C71.9942 6.10063 72 5.88645 72 5.67151C72 5.45662 71.9942 5.2425 71.9828 5.0292C71.9942 4.8159 72 4.60179 72 4.3869C72 4.1719 71.9942 3.95766 71.9827 3.74424C71.9942 3.53083 72 3.31659 72 3.10159C72 2.8867 71.9942 2.67258 71.9828 2.45928C71.9942 2.24598 72 2.03187 72 1.81698C72 1.60204 71.9942 1.38786 71.9828 1.1745C71.9869 1.09738 71.9903 1.02016 71.993 0.942827C70.3495 2.58295 68.3698 4.09849 66.1076 5.45863C64.681 6.78878 62.9715 8.02767 61.0095 9.14812C54.6539 12.7776 45.8136 15.0511 36 15.0511C26.1864 15.0511 17.3461 12.7776 10.9905 9.14812C8.54302 7.75042 6.48858 6.16841 4.88575 4.45486C11.1272 10.5621 22.7244 14.6658 36 14.6658C48.4028 14.6658 59.3407 11.084 65.8149 5.63286C63.9012 6.76016 61.7912 7.77763 59.5166 8.6672C53.3033 11.8251 45.0671 13.7658 36 13.7658C26.1864 13.7658 17.3461 11.4923 10.9905 7.86281C10.4448 7.55118 9.91866 7.23038 9.41268 6.901C5.57362 4.96688 2.37211 2.62765 0.011879 0C0.00401306 0.176794 5.34058e-05 0.354144 5.34058e-05 0.532021C5.34058e-05 0.746974 0.00583649 0.961118 0.0173035 1.17448C0.00583649 1.38785 5.34058e-05 1.60203 5.34058e-05 1.81698C5.34058e-05 2.03188 0.00582886 2.24596 0.0172882 2.45927C0.00582886 2.67257 5.34058e-05 2.88669 5.34058e-05 3.10159C5.34058e-05 3.3166 0.00583649 3.53081 0.0173111 3.74423C0.00583649 3.95765 5.34058e-05 4.17189 5.34058e-05 4.3869C5.34058e-05 4.6018 0.00582886 4.81588 0.0172882 5.02919C0.00582886 5.24249 5.34058e-05 5.45661 5.34058e-05 5.67151C5.34058e-05 5.88646 0.00583649 6.10061 0.0173035 6.31397ZM4.89351 5.74777C11.1368 11.8509 22.7299 15.9511 36 15.9511C49.2701 15.9511 60.8633 11.8509 67.1065 5.74778C65.5048 7.45813 63.4531 9.03729 61.0095 10.4327C54.6539 14.0622 45.8136 16.3357 36 16.3357C26.1864 16.3357 17.3461 14.0622 10.9905 10.4327C8.54697 9.03729 6.49522 7.45813 4.89351 5.74777ZM10.9905 11.7177C8.54499 10.3211 6.49188 8.74052 4.88961 7.02857C11.132 13.1337 22.7272 17.2357 36 17.2357C49.2729 17.2357 60.8681 13.1338 67.1104 7.02859C65.5081 8.74054 63.4551 10.3211 61.0095 11.7177C54.6539 15.3472 45.8136 17.6207 36 17.6207C26.1864 17.6207 17.3461 15.3472 10.9905 11.7177ZM4.88962 8.31353C6.49189 10.0255 8.54499 11.6061 10.9905 13.0027C17.3461 16.6322 26.1864 18.9057 36 18.9057C45.8136 18.9057 54.6539 16.6322 61.0095 13.0027C63.455 11.6061 65.5081 10.0255 67.1104 8.31356C60.8681 14.4187 49.2729 18.5207 36 18.5207C22.7272 18.5207 11.132 14.4187 4.88962 8.31353ZM10.9905 14.2876C8.54498 12.891 6.49187 11.3104 4.8896 9.59847C11.1319 15.7036 22.7272 19.8057 36 19.8057C49.2729 19.8057 60.8681 15.7037 67.1104 9.59852C65.5081 11.3105 63.455 12.891 61.0095 14.2876C54.6539 17.9171 45.8136 20.1906 36 20.1906C26.1864 20.1906 17.3461 17.9171 10.9905 14.2876ZM4.88963 10.8835C6.4919 12.5954 8.54499 14.176 10.9905 15.5726C17.3461 19.2021 26.1864 21.4756 36 21.4756C45.8136 21.4756 54.6539 19.2021 61.0095 15.5726C63.455 14.176 65.5081 12.5954 67.1104 10.8835C60.868 16.9887 49.2729 21.0906 36 21.0906C22.7272 21.0906 11.132 16.9886 4.88963 10.8835ZM10.9905 16.8572C8.54699 15.4617 6.49525 13.8826 4.89355 12.1723C11.1368 18.2753 22.73 22.3756 36 22.3756C49.2701 22.3756 60.8632 18.2753 67.1065 12.1723C65.5048 13.8826 63.4531 15.4617 61.0095 16.8572C54.6539 20.4867 45.8136 22.7602 36 22.7602C26.1864 22.7602 17.3461 20.4867 10.9905 16.8572ZM4.88579 13.4493C6.48862 15.1628 8.54305 16.7448 10.9905 18.1425C17.3461 21.772 26.1864 24.0455 36 24.0455C45.8136 24.0455 54.6539 21.772 61.0095 18.1425C63.457 16.7448 65.5114 15.1628 67.1143 13.4493C60.8728 19.5565 49.2756 23.6602 36 23.6602C22.7244 23.6602 11.1272 19.5565 4.88579 13.4493ZM10.9905 19.4271C8.54699 18.0317 6.49525 16.4525 4.89356 14.7422C11.1368 20.8452 22.73 24.9455 36 24.9455C49.2701 24.9455 60.8633 20.8452 67.1065 14.7422C65.5048 16.4525 63.4531 18.0317 61.0095 19.4271C54.6539 23.0566 45.8136 25.3301 36 25.3301C26.1864 25.3301 17.3461 23.0566 10.9905 19.4271ZM4.88968 16.023C11.132 22.1282 22.7272 26.2301 36 26.2301C49.2729 26.2301 60.8681 22.1281 67.1104 16.023C65.5081 17.7349 63.4551 19.3155 61.0095 20.7121C54.6539 24.3416 45.8136 26.6151 36 26.6151C26.1864 26.6151 17.3461 24.3416 10.9905 20.7121C8.54502 19.3155 6.49194 17.7349 4.88968 16.023ZM61.0095 21.997C63.4551 20.6004 65.5082 19.0199 67.1104 17.3079C60.8681 23.4131 49.2729 27.5151 36 27.5151C22.7272 27.5151 11.132 23.4131 4.88961 17.3079C6.49188 19.0199 8.54499 20.6004 10.9905 21.997C17.3461 25.6265 26.1864 27.9 36 27.9C45.8136 27.9 54.6539 25.6265 61.0095 21.997Z" fill="url(#paint0_linear_27_1823)"/>
<path fill-rule="evenodd" clip-rule="evenodd" d="M71.9827 65.686C71.9942 65.4726 71.9999 65.2585 71.9999 65.0435C71.9999 64.8286 71.9942 64.6144 71.9827 64.4011C71.9942 64.1877 71.9999 63.9735 71.9999 63.7586C71.9999 52.4044 55.8822 43.2 36 43.2C16.1177 43.2 0 52.4044 0 63.7586C0 63.9735 0.00577632 64.1877 0.0172451 64.401C0.00577632 64.6144 0 64.8286 0 65.0435C0 65.2585 0.00577632 65.4726 0.0172451 65.686C0.00577632 65.8994 0 66.1135 0 66.3285C0 66.5434 0.00577314 66.7575 0.0172357 66.9708C0.00577314 67.1841 0 67.3982 0 67.6131C0 67.8281 0.00577949 68.0423 0.0172546 68.2557C0.00577949 68.4692 0 68.6834 0 68.8984C0 69.1133 0.00577314 69.3274 0.0172357 69.5407C0.00577314 69.754 0 69.9681 0 70.183C0 70.3979 0.00577632 70.6121 0.0172451 70.8255C0.0130997 70.9026 0.00969802 70.9798 0.00704397 71.0572C1.65053 69.417 3.63025 67.9015 5.89236 66.5414C7.31903 65.2112 9.02845 63.9723 10.9905 62.8519C17.3461 59.2223 26.1864 56.9488 36 56.9488C45.8136 56.9488 54.6539 59.2223 61.0095 62.8519C63.457 64.2496 65.5114 65.8316 67.1143 67.5451C60.8728 61.4378 49.2756 57.3342 36 57.3342C23.5972 57.3342 12.6593 60.916 6.18513 66.3671C8.09885 65.2398 10.2088 64.2224 12.4834 63.3328C18.6967 60.1749 26.9329 58.2342 36 58.2342C45.8136 58.2342 54.6539 60.5077 61.0095 64.1372C61.5552 64.4488 62.0813 64.7696 62.5873 65.099C66.4264 67.0331 69.6279 69.3723 71.9881 72C71.996 71.8232 71.9999 71.6458 71.9999 71.468C71.9999 71.253 71.9942 71.0389 71.9827 70.8255C71.9942 70.6121 71.9999 70.398 71.9999 70.183C71.9999 69.9681 71.9942 69.754 71.9827 69.5407C71.9942 69.3274 71.9999 69.1133 71.9999 68.8984C71.9999 68.6834 71.9942 68.4692 71.9827 68.2558C71.9942 68.0423 71.9999 67.8281 71.9999 67.6131C71.9999 67.3982 71.9942 67.1841 71.9827 66.9708C71.9942 66.7575 71.9999 66.5434 71.9999 66.3285C71.9999 66.1135 71.9942 65.8994 71.9827 65.686ZM67.1065 66.2522C60.8632 60.1491 49.2701 56.0488 36 56.0488C22.7299 56.0488 11.1367 60.1491 4.89346 66.2522C6.49517 64.5419 8.54692 62.9627 10.9905 61.5673C17.3461 57.9377 26.1864 55.6642 36 55.6642C45.8136 55.6642 54.6539 57.9377 61.0095 61.5673C63.453 62.9627 65.5048 64.5419 67.1065 66.2522ZM61.0095 60.2823C63.455 61.6789 65.5081 63.2595 67.1104 64.9714C60.868 58.8663 49.2728 54.7642 36 54.7642C22.7271 54.7642 11.1319 58.8662 4.88958 64.9714C6.49185 63.2594 8.54494 61.6789 10.9905 60.2823C17.3461 56.6528 26.1864 54.3793 36 54.3793C45.8136 54.3793 54.6539 56.6528 61.0095 60.2823ZM67.1104 63.6865C65.5081 61.9745 63.455 60.3939 61.0095 58.9973C54.6539 55.3678 45.8136 53.0943 36 53.0943C26.1864 53.0943 17.3461 55.3678 10.9905 58.9973C8.54495 60.3939 6.49186 61.9745 4.88959 63.6864C11.1319 57.5813 22.7271 53.4793 36 53.4793C49.2728 53.4793 60.868 57.5813 67.1104 63.6865ZM61.0095 57.7124C63.455 59.109 65.5081 60.6896 67.1104 62.4015C60.8681 56.2963 49.2728 52.1943 36 52.1943C22.7271 52.1943 11.1319 56.2963 4.8896 62.4015C6.49186 60.6895 8.54495 59.1089 10.9905 57.7124C17.3461 54.0829 26.1864 51.8094 36 51.8094C45.8136 51.8094 54.6539 54.0829 61.0095 57.7124ZM67.1104 61.1165C65.5081 59.4046 63.455 57.824 61.0095 56.4274C54.6539 52.7979 45.8136 50.5244 36 50.5244C26.1864 50.5244 17.3461 52.7979 10.9905 56.4274C8.54496 57.824 6.49189 59.4045 4.88962 61.1165C11.132 55.0113 22.7271 50.9094 36 50.9094C49.2728 50.9094 60.868 55.0114 67.1104 61.1165ZM61.0095 55.1428C63.453 56.5382 65.5047 58.1174 67.1064 59.8277C60.8632 53.7247 49.27 49.6244 36 49.6244C22.7299 49.6244 11.1368 53.7247 4.8935 59.8277C6.4952 58.1174 8.54694 56.5382 10.9905 55.1428C17.3461 51.5133 26.1864 49.2398 36 49.2398C45.8136 49.2398 54.6539 51.5133 61.0095 55.1428ZM67.1142 58.5507C65.5114 56.8372 63.457 55.2552 61.0095 53.8575C54.6539 50.228 45.8136 47.9545 36 47.9545C26.1864 47.9545 17.3461 50.228 10.9905 53.8575C8.54299 55.2552 6.48858 56.8372 4.88575 58.5507C11.1272 52.4435 22.7244 48.3398 36 48.3398C49.2756 48.3398 60.8728 52.4435 67.1142 58.5507ZM61.0095 52.5729C63.453 53.9683 65.5047 55.5475 67.1064 57.2578C60.8632 51.1547 49.27 47.0545 36 47.0545C22.7299 47.0545 11.1367 51.1548 4.89347 57.2578C6.49517 55.5475 8.54692 53.9683 10.9905 52.5729C17.3461 48.9434 26.1864 46.6699 36 46.6699C45.8136 46.6699 54.6539 48.9434 61.0095 52.5729ZM67.1103 55.977C60.868 49.8718 49.2728 45.7699 36 45.7699C22.7271 45.7699 11.1319 49.8719 4.88958 55.977C6.49185 54.2651 8.54494 52.6845 10.9905 51.2879C17.3461 47.6584 26.1864 45.3849 36 45.3849C45.8136 45.3849 54.6539 47.6584 61.0095 51.2879C63.455 52.6845 65.5081 54.265 67.1103 55.977ZM10.9905 50.003C8.54494 51.3995 6.49185 52.9801 4.88958 54.6921C11.1319 48.5869 22.7271 44.4849 36 44.4849C49.2728 44.4849 60.868 48.5869 67.1104 54.6921C65.5081 52.9801 63.455 51.3995 61.0095 50.003C54.6539 46.3734 45.8136 44.1 36 44.1C26.1864 44.1 17.3461 46.3734 10.9905 50.003Z" fill="url(#paint1_linear_27_1823)"/>
<path fill-rule="evenodd" clip-rule="evenodd" d="M65.686 0.0172485C65.4726 0.00578155 65.2585 0 65.0435 0C64.8286 0 64.6144 0.00578155 64.4011 0.0172485C64.1877 0.00578155 63.9735 0 63.7586 0C52.4044 0 43.2 16.1177 43.2 36C43.2 55.8822 52.4044 71.9999 63.7586 71.9999C63.9735 71.9999 64.1877 71.9942 64.401 71.9827C64.6144 71.9942 64.8286 71.9999 65.0435 71.9999C65.2585 71.9999 65.4726 71.9942 65.686 71.9827C65.8994 71.9942 66.1135 71.9999 66.3285 71.9999C66.5434 71.9999 66.7575 71.9942 66.9708 71.9827C67.1841 71.9942 67.3982 71.9999 67.6131 71.9999C67.8281 71.9999 68.0423 71.9942 68.2557 71.9827C68.4692 71.9942 68.6834 71.9999 68.8984 71.9999C69.1133 71.9999 69.3274 71.9942 69.5407 71.9827C69.754 71.9942 69.9681 71.9999 70.183 71.9999C70.3979 71.9999 70.6121 71.9942 70.8255 71.9827C70.9026 71.9868 70.9798 71.9902 71.0572 71.9929C69.417 70.3494 67.9015 68.3697 66.5414 66.1076C65.2112 64.6809 63.9723 62.9715 62.8519 61.0095C59.2223 54.6539 56.9488 45.8136 56.9488 36C56.9488 26.1864 59.2223 17.3461 62.8519 10.9905C64.2496 8.54296 65.8316 6.48853 67.5451 4.88569C61.4378 11.1271 57.3342 22.7244 57.3342 36C57.3342 48.4028 60.916 59.3406 66.3671 65.8148C65.2398 63.9011 64.2224 61.7911 63.3328 59.5165C60.1749 53.3032 58.2342 45.067 58.2342 36C58.2342 26.1864 60.5077 17.3461 64.1372 10.9905C64.4488 10.4448 64.7696 9.9186 65.099 9.41263C67.0331 5.57357 69.3723 2.37206 72 0.011824C71.8232 0.00396194 71.6458 0 71.468 0C71.253 0 71.0389 0.00578155 70.8255 0.0172485C70.6121 0.00578155 70.398 0 70.183 0C69.9681 0 69.754 0.00577468 69.5407 0.0172348C69.3274 0.00577468 69.1133 0 68.8984 0C68.6834 0 68.4692 0.00578155 68.2558 0.0172554C68.0423 0.00578155 67.8281 0 67.6131 0C67.3982 0 67.1841 0.00577468 66.9708 0.0172348C66.7575 0.00577468 66.5434 0 66.3285 0C66.1135 0 65.8994 0.00578155 65.686 0.0172485ZM66.2522 4.89346C60.1491 11.1367 56.0488 22.7299 56.0488 36C56.0488 49.2701 60.1491 60.8632 66.2522 67.1065C64.5419 65.5048 62.9627 63.453 61.5673 61.0095C57.9377 54.6539 55.6642 45.8136 55.6642 36C55.6642 26.1864 57.9377 17.3461 61.5673 10.9905C62.9627 8.54691 64.5419 6.49516 66.2522 4.89346ZM60.2823 10.9905C61.6789 8.54493 63.2595 6.49183 64.9714 4.88956C58.8663 11.1319 54.7642 22.7271 54.7642 36C54.7642 49.2728 58.8662 60.868 64.9714 67.1104C63.2594 65.5081 61.6789 63.455 60.2823 61.0095C56.6528 54.6539 54.3793 45.8136 54.3793 36C54.3793 26.1864 56.6528 17.3461 60.2823 10.9905ZM63.6865 4.88956C61.9745 6.49184 60.3939 8.54493 58.9973 10.9905C55.3678 17.3461 53.0943 26.1864 53.0943 36C53.0943 45.8136 55.3678 54.6539 58.9973 61.0095C60.3939 63.455 61.9745 65.5081 63.6864 67.1104C57.5813 60.868 53.4793 49.2728 53.4793 36C53.4793 22.7271 57.5813 11.1319 63.6865 4.88956ZM57.7124 10.9905C59.109 8.54492 60.6896 6.49182 62.4015 4.88954C56.2963 11.1319 52.1943 22.7271 52.1943 36C52.1943 49.2728 56.2963 60.868 62.4015 67.1104C60.6895 65.5081 59.1089 63.455 57.7124 61.0095C54.0829 54.6539 51.8094 45.8136 51.8094 36C51.8094 26.1864 54.0829 17.3461 57.7124 10.9905ZM61.1165 4.88957C59.4046 6.49184 57.824 8.54494 56.4274 10.9905C52.7979 17.3461 50.5244 26.1864 50.5244 36C50.5244 45.8136 52.7979 54.6539 56.4274 61.0095C57.824 63.455 59.4045 65.5081 61.1165 67.1103C55.0113 60.868 50.9094 49.2728 50.9094 36C50.9094 22.7271 55.0114 11.1319 61.1165 4.88957ZM55.1428 10.9905C56.5382 8.54694 58.1174 6.4952 59.8277 4.8935C53.7247 11.1368 49.6244 22.7299 49.6244 36C49.6244 49.2701 53.7247 60.8632 59.8277 67.1064C58.1174 65.5047 56.5382 63.453 55.1428 61.0095C51.5133 54.6539 49.2398 45.8136 49.2398 36C49.2398 26.1864 51.5133 17.3461 55.1428 10.9905ZM58.5507 4.88573C56.8372 6.48856 55.2552 8.54299 53.8575 10.9905C50.228 17.3461 47.9545 26.1864 47.9545 36C47.9545 45.8136 50.228 54.6539 53.8575 61.0095C55.2552 63.457 56.8372 65.5114 58.5507 67.1142C52.4435 60.8728 48.3398 49.2755 48.3398 36C48.3398 22.7244 52.4435 11.1272 58.5507 4.88573ZM52.5729 10.9905C53.9683 8.54694 55.5475 6.4952 57.2578 4.89351C51.1547 11.1368 47.0545 22.7299 47.0545 36C47.0545 49.2701 51.1548 60.8632 57.2578 67.1065C55.5475 65.5048 53.9683 63.453 52.5729 61.0095C48.9434 54.6539 46.6699 45.8136 46.6699 36C46.6699 26.1864 48.9434 17.3461 52.5729 10.9905ZM55.977 4.88963C49.8718 11.132 45.7699 22.7272 45.7699 36C45.7699 49.2728 49.8719 60.868 55.977 67.1104C54.2651 65.5081 52.6845 63.455 51.2879 61.0095C47.6584 54.6539 45.3849 45.8136 45.3849 36C45.3849 26.1864 47.6584 17.3461 51.2879 10.9905C52.6845 8.54497 54.265 6.49189 55.977 4.88963ZM50.003 61.0095C51.3995 63.455 52.9801 65.5081 54.6921 67.1104C48.5869 60.868 44.4849 49.2728 44.4849 36C44.4849 22.7271 48.5869 11.1319 54.6921 4.88956C52.9801 6.49183 51.3995 8.54493 50.003 10.9905C46.3734 17.3461 44.1 26.1864 44.1 36C44.1 45.8136 46.3734 54.6539 50.003 61.0095Z" fill="url(#paint2_linear_27_1823)"/>
<path fill-rule="evenodd" clip-rule="evenodd" d="M6.31397 0.0172485C6.52733 0.00578155 6.74152 0 6.95647 0C7.17142 0 7.38557 0.00578155 7.59893 0.0172485C7.81229 0.00578155 8.02648 0 8.24143 0C19.5956 0 28.8 16.1177 28.8 36C28.8 55.8822 19.5956 71.9999 8.24143 71.9999C8.02648 71.9999 7.81231 71.9942 7.59895 71.9827C7.38559 71.9942 7.17141 71.9999 6.95647 71.9999C6.74152 71.9999 6.52735 71.9942 6.31399 71.9827C6.10063 71.9942 5.88645 71.9999 5.67151 71.9999C5.45662 71.9999 5.2425 71.9942 5.0292 71.9827C4.8159 71.9942 4.60179 71.9999 4.3869 71.9999C4.1719 71.9999 3.95766 71.9942 3.74424 71.9827C3.53083 71.9942 3.31659 71.9999 3.10159 71.9999C2.8867 71.9999 2.67258 71.9942 2.45928 71.9827C2.24598 71.9942 2.03187 71.9999 1.81698 71.9999C1.60204 71.9999 1.38786 71.9942 1.1745 71.9827C1.09738 71.9868 1.02016 71.9902 0.942827 71.9929C2.58295 70.3494 4.09849 68.3697 5.45863 66.1076C6.78878 64.6809 8.02767 62.9715 9.14812 61.0095C12.7776 54.6539 15.0511 45.8136 15.0511 36C15.0511 26.1864 12.7776 17.3461 9.14812 10.9905C7.75042 8.54296 6.16841 6.48853 4.45486 4.88569C10.5621 11.1271 14.6658 22.7244 14.6658 36C14.6658 48.4028 11.084 59.3406 5.63286 65.8148C6.76016 63.9011 7.77763 61.7911 8.6672 59.5165C11.8251 53.3032 13.7658 45.067 13.7658 36C13.7658 26.1864 11.4923 17.3461 7.86281 10.9905C7.55118 10.4448 7.23038 9.9186 6.901 9.41263C4.96688 5.57357 2.62765 2.37206 0 0.011824C0.176794 0.00396194 0.354144 0 0.532021 0C0.746974 0 0.961118 0.00578155 1.17448 0.0172485C1.38785 0.00578155 1.60203 0 1.81698 0C2.03188 0 2.24596 0.00577468 2.45927 0.0172348C2.67257 0.00577468 2.88669 0 3.10159 0C3.3166 0 3.53081 0.00578155 3.74423 0.0172554C3.95765 0.00578155 4.17189 0 4.3869 0C4.6018 0 4.81588 0.00577468 5.02919 0.0172348C5.24249 0.00577468 5.45661 0 5.67151 0C5.88646 0 6.10061 0.00578155 6.31397 0.0172485ZM5.74777 4.89346C11.8509 11.1367 15.9511 22.7299 15.9511 36C15.9511 49.2701 11.8509 60.8632 5.74778 67.1065C7.45813 65.5048 9.03729 63.453 10.4327 61.0095C14.0622 54.6539 16.3357 45.8136 16.3357 36C16.3357 26.1864 14.0622 17.3461 10.4327 10.9905C9.03729 8.54691 7.45813 6.49516 5.74777 4.89346ZM11.7177 10.9905C10.3211 8.54493 8.74052 6.49183 7.02857 4.88956C13.1337 11.1319 17.2357 22.7271 17.2357 36C17.2357 49.2728 13.1338 60.868 7.02859 67.1104C8.74054 65.5081 10.3211 63.455 11.7177 61.0095C15.3472 54.6539 17.6207 45.8136 17.6207 36C17.6207 26.1864 15.3472 17.3461 11.7177 10.9905ZM8.31353 4.88956C10.0255 6.49184 11.6061 8.54493 13.0027 10.9905C16.6322 17.3461 18.9057 26.1864 18.9057 36C18.9057 45.8136 16.6322 54.6539 13.0027 61.0095C11.6061 63.455 10.0255 65.5081 8.31356 67.1104C14.4187 60.868 18.5207 49.2728 18.5207 36C18.5207 22.7271 14.4187 11.1319 8.31353 4.88956ZM14.2876 10.9905C12.891 8.54492 11.3104 6.49182 9.59847 4.88954C15.7036 11.1319 19.8057 22.7271 19.8057 36C19.8057 49.2728 15.7037 60.868 9.59852 67.1104C11.3105 65.5081 12.891 63.455 14.2876 61.0095C17.9171 54.6539 20.1906 45.8136 20.1906 36C20.1906 26.1864 17.9171 17.3461 14.2876 10.9905ZM10.8835 4.88957C12.5954 6.49184 14.176 8.54494 15.5726 10.9905C19.2021 17.3461 21.4756 26.1864 21.4756 36C21.4756 45.8136 19.2021 54.6539 15.5726 61.0095C14.176 63.455 12.5954 65.5081 10.8835 67.1103C16.9887 60.868 21.0906 49.2728 21.0906 36C21.0906 22.7271 16.9886 11.1319 10.8835 4.88957ZM16.8572 10.9905C15.4617 8.54694 13.8826 6.4952 12.1723 4.8935C18.2753 11.1368 22.3756 22.7299 22.3756 36C22.3756 49.2701 18.2753 60.8632 12.1723 67.1064C13.8826 65.5047 15.4617 63.453 16.8572 61.0095C20.4867 54.6539 22.7602 45.8136 22.7602 36C22.7602 26.1864 20.4867 17.3461 16.8572 10.9905ZM13.4493 4.88573C15.1628 6.48856 16.7448 8.54299 18.1425 10.9905C21.772 17.3461 24.0455 26.1864 24.0455 36C24.0455 45.8136 21.772 54.6539 18.1425 61.0095C16.7448 63.457 15.1628 65.5114 13.4493 67.1142C19.5565 60.8728 23.6602 49.2755 23.6602 36C23.6602 22.7244 19.5565 11.1272 13.4493 4.88573ZM19.4271 10.9905C18.0317 8.54694 16.4525 6.4952 14.7422 4.89351C20.8452 11.1368 24.9455 22.7299 24.9455 36C24.9455 49.2701 20.8452 60.8632 14.7422 67.1065C16.4525 65.5048 18.0317 63.453 19.4271 61.0095C23.0566 54.6539 25.3301 45.8136 25.3301 36C25.3301 26.1864 23.0566 17.3461 19.4271 10.9905ZM16.023 4.88963C22.1282 11.132 26.2301 22.7272 26.2301 36C26.2301 49.2728 22.1281 60.868 16.023 67.1104C17.7349 65.5081 19.3155 63.455 20.7121 61.0095C24.3416 54.6539 26.6151 45.8136 26.6151 36C26.6151 26.1864 24.3416 17.3461 20.7121 10.9905C19.3155 8.54497 17.7349 6.49189 16.023 4.88963ZM21.997 61.0095C20.6004 63.455 19.0199 65.5081 17.3079 67.1104C23.4131 60.868 27.5151 49.2728 27.5151 36C27.5151 22.7271 23.4131 11.1319 17.3079 4.88956C19.0199 6.49183 20.6004 8.54493 21.997 10.9905C25.6265 17.3461 27.9 26.1864 27.9 36C27.9 45.8136 25.6265 54.6539 21.997 61.0095Z" fill="url(#paint3_linear_27_1823)"/>
<defs>
<linearGradient id="paint0_linear_27_1823" x1="35.1" y1="31.05" x2="37.1961" y2="7.38565" gradientUnits="userSpaceOnUse">
<stop stop-color="white"/>
<stop offset="1" stop-color="white" stop-opacity="0"/>
</linearGradient>
<linearGradient id="paint1_linear_27_1823" x1="37.35" y1="42.12" x2="34.8821" y2="69.9813" gradientUnits="userSpaceOnUse">
<stop stop-color="white"/>
<stop offset="1" stop-color="white" stop-opacity="0"/>
</linearGradient>
<linearGradient id="paint2_linear_27_1823" x1="42.12" y1="34.65" x2="66.4094" y2="36.8014" gradientUnits="userSpaceOnUse">
<stop stop-color="white"/>
<stop offset="1" stop-color="white" stop-opacity="0"/>
</linearGradient>
<linearGradient id="paint3_linear_27_1823" x1="29.88" y1="34.65" x2="5.14406" y2="36.841" gradientUnits="userSpaceOnUse">
<stop stop-color="white"/>
<stop offset="1" stop-color="white" stop-opacity="0"/>
</linearGradient>
</defs>
</svg>
