<svg width="32" height="32" viewBox="0 0 32 32" fill="none" xmlns="http://www.w3.org/2000/svg">
<rect x="2.5" y="4.5" width="3" height="23" rx="0.5" stroke="black"/>
<path d="M13 4.5H29C29.2761 4.5 29.5 4.72386 29.5 5V27C29.5 27.2761 29.2761 27.5 29 27.5H13C12.7239 27.5 12.5 27.2761 12.5 27V5C12.5 4.72386 12.7239 4.5 13 4.5Z" stroke="black"/>
<rect x="7.5" y="4.5" width="3" height="23" rx="0.5" stroke="black"/>
<rect x="14" y="8" width="13" height="1" fill="black"/>
<rect x="14" y="12" width="13" height="1" fill="black"/>
<rect x="14" y="16" width="13" height="1" fill="black"/>
<rect x="14" y="14" width="10" height="1" fill="black"/>
<rect x="14" y="10" width="9" height="1" fill="black"/>
</svg>
